ISO-10303-21;
HEADER;

/* File generated by Shapr3D Version 5.930.9346.0 */

FILE_DESCRIPTION(('HOOPS Exchange Step'),'2;1');

FILE_NAME('C:\\Users\\ggllxx\\AppData\\Local\\Packages\\Shapr3D.Shapr3D_j403pzjkqtqbj\\TempState\\export\\temp_export',
'2025-09-09T03:41:23-16:00',
('ggllxx'),
('Shapr3D Limited'),
'HOOPS Exchange 2025.5',
'Shapr3D',
'Authorized');

FILE_SCHEMA( ('AUTOMOTIVE_DESIGN { 1 0 10303 214 1 1 1 1 }') );

ENDSEC;

DATA;
#3=(NAMED_UNIT(*)PLANE_ANGLE_UNIT()SI_UNIT($,.RADIAN.));
#4=PLANE_ANGLE_MEASURE_WITH_UNIT(PLANE_ANGLE_MEASURE(0.0174532925),#3);
#5=(CONVERSION_BASED_UNIT('DEGREE',#4)NAMED_UNIT(#6)PLANE_ANGLE_UNIT());
#6=DIMENSIONAL_EXPONENTS(0.,0.,0.,0.,0.,0.,0.);
#7=(NAMED_UNIT(*)SI_UNIT($,.STERADIAN.)SOLID_ANGLE_UNIT());
#8=(LENGTH_UNIT()NAMED_UNIT(*)SI_UNIT(.MILLI.,.METRE.));
#9=UNCERTAINTY_MEASURE_WITH_UNIT(LENGTH_MEASURE(1.000000E-03),#8,'DISTANCE_ACCURACY_VALUE','Maximum Tolerance applied to model');
#10=(GEOMETRIC_REPRESENTATION_CONTEXT(3)GLOBAL_UNCERTAINTY_ASSIGNED_CONTEXT((#9))GLOBAL_UNIT_ASSIGNED_CONTEXT((#8,#5,#7))REPRESENTATION_CONTEXT('','root'));
#12=CARTESIAN_POINT('',(0.,0.,0.));
#13=DIRECTION('',(0.,0.,1.));
#14=DIRECTION('',(1.,0.,0.));
#15=AXIS2_PLACEMENT_3D('',#12,#13,#14);
#26=(NAMED_UNIT(*)PLANE_ANGLE_UNIT()SI_UNIT($,.RADIAN.));
#27=PLANE_ANGLE_MEASURE_WITH_UNIT(PLANE_ANGLE_MEASURE(0.0174532925),#26);
#28=(CONVERSION_BASED_UNIT('DEGREE',#27)NAMED_UNIT(#29)PLANE_ANGLE_UNIT());
#29=DIMENSIONAL_EXPONENTS(0.,0.,0.,0.,0.,0.,0.);
#30=(NAMED_UNIT(*)SI_UNIT($,.STERADIAN.)SOLID_ANGLE_UNIT());
#31=(LENGTH_UNIT()NAMED_UNIT(*)SI_UNIT(.MILLI.,.METRE.));
#32=UNCERTAINTY_MEASURE_WITH_UNIT(LENGTH_MEASURE(1.000000E-03),#31,'DISTANCE_ACCURACY_VALUE','Maximum Tolerance applied to model');
#33=(GEOMETRIC_REPRESENTATION_CONTEXT(3)GLOBAL_UNCERTAINTY_ASSIGNED_CONTEXT((#32))GLOBAL_UNIT_ASSIGNED_CONTEXT((#31,#28,#30))REPRESENTATION_CONTEXT('','\X2\4E9153F0603B88C5\X0\.STEP'));
#45=CARTESIAN_POINT('',(0.,0.,0.));
#46=DIRECTION('',(0.,0.,1.));
#47=DIRECTION('',(1.,0.,-0.));
#48=AXIS2_PLACEMENT_3D('',#45,#46,#47);
#49=ITEM_DEFINED_TRANSFORMATION('','',#48,#15);
#50=(REPRESENTATION_RELATIONSHIP('','',#35,#16)REPRESENTATION_RELATIONSHIP_WITH_TRANSFORMATION(#49)SHAPE_REPRESENTATION_RELATIONSHIP());
#51=NEXT_ASSEMBLY_USAGE_OCCURRENCE('\X2\4E9153F0603B88C5\X0\.STEP_1','\X2\4E9153F0603B88C5\X0\.STEP','\X2\4E9153F0603B88C5\X0\.STEP',#25,#44,$);
#52=PRODUCT_DEFINITION_SHAPE('','',#51);
#53=CONTEXT_DEPENDENT_SHAPE_REPRESENTATION(#50,#52);
#54=(NAMED_UNIT(*)PLANE_ANGLE_UNIT()SI_UNIT($,.RADIAN.));
#55=PLANE_ANGLE_MEASURE_WITH_UNIT(PLANE_ANGLE_MEASURE(0.0174532925),#54);
#56=(CONVERSION_BASED_UNIT('DEGREE',#55)NAMED_UNIT(#57)PLANE_ANGLE_UNIT());
#57=DIMENSIONAL_EXPONENTS(0.,0.,0.,0.,0.,0.,0.);
#58=(NAMED_UNIT(*)SI_UNIT($,.STERADIAN.)SOLID_ANGLE_UNIT());
#59=(LENGTH_UNIT()NAMED_UNIT(*)SI_UNIT(.MILLI.,.METRE.));
#60=UNCERTAINTY_MEASURE_WITH_UNIT(LENGTH_MEASURE(1.000000E-05),#59,'DISTANCE_ACCURACY_VALUE','Maximum Tolerance applied to model');
#61=(GEOMETRIC_REPRESENTATION_CONTEXT(3)GLOBAL_UNCERTAINTY_ASSIGNED_CONTEXT((#60))GLOBAL_UNIT_ASSIGNED_CONTEXT((#59,#56,#58))REPRESENTATION_CONTEXT('','p\X2\4E9153F0\X0\new'));
#73=CARTESIAN_POINT('',(0.,0.,0.));
#74=DIRECTION('',(0.,0.,1.));
#75=DIRECTION('',(1.,0.,-0.));
#76=AXIS2_PLACEMENT_3D('',#73,#74,#75);
#77=ITEM_DEFINED_TRANSFORMATION('','',#76,#15);
#78=(REPRESENTATION_RELATIONSHIP('','',#63,#35)REPRESENTATION_RELATIONSHIP_WITH_TRANSFORMATION(#77)SHAPE_REPRESENTATION_RELATIONSHIP());
#79=NEXT_ASSEMBLY_USAGE_OCCURRENCE('p\X2\4E9153F0\X0\new_2','p\X2\4E9153F0\X0\new','p\X2\4E9153F0\X0\new',#44,#72,$);
#80=PRODUCT_DEFINITION_SHAPE('','',#79);
#81=CONTEXT_DEPENDENT_SHAPE_REPRESENTATION(#78,#80);
#83=CARTESIAN_POINT('',(-3.399491924,9.687330554,130.438638218));
#84=DIRECTION('',(-0.,-0.,-1.));
#85=DIRECTION('',(-1.,0.,0.));
#86=AXIS2_PLACEMENT_3D('',#83,#84,#85);
#87=PLANE('',#86);
#88=CARTESIAN_POINT('',(21.79,6.157330554,130.438638218));
#89=VERTEX_POINT('',#88);
#90=CARTESIAN_POINT('',(20.19,6.157330554,130.438638218));
#91=DIRECTION('',(-0.,-0.,-1.));
#92=DIRECTION('',(1.,-0.,-0.));
#93=AXIS2_PLACEMENT_3D('',#90,#91,#92);
#94=CIRCLE('',#93,1.6);
#95=EDGE_CURVE('NONE',#89,#89,#94,.T.);
#96=ORIENTED_EDGE('',*,*,#95,.F.);
#97=EDGE_LOOP('',(#96));
#98=FACE_BOUND('',#97,.T.);
#99=CARTESIAN_POINT('',(-58.22,-33.842669446,130.438638218));
#100=VERTEX_POINT('',#99);
#101=CARTESIAN_POINT('',(-59.82,-33.842669446,130.438638218));
#102=DIRECTION('',(-0.,-0.,-1.));
#103=DIRECTION('',(1.,-0.,-0.));
#104=AXIS2_PLACEMENT_3D('',#101,#102,#103);
#105=CIRCLE('',#104,1.6);
#106=EDGE_CURVE('NONE',#100,#100,#105,.T.);
#107=ORIENTED_EDGE('',*,*,#106,.F.);
#108=EDGE_LOOP('',(#107));
#109=FACE_BOUND('',#108,.T.);
#110=CARTESIAN_POINT('',(18.54,-56.702669446,130.438638218));
#111=VERTEX_POINT('',#110);
#112=CARTESIAN_POINT('',(20.19,-56.702669446,130.438638218));
#113=DIRECTION('',(-0.,-0.,-1.));
#114=DIRECTION('',(-1.,0.,0.));
#115=AXIS2_PLACEMENT_3D('',#112,#113,#114);
#116=CIRCLE('',#115,1.65);
#117=EDGE_CURVE('NONE',#111,#111,#116,.T.);
#118=ORIENTED_EDGE('',*,*,#117,.F.);
#119=EDGE_LOOP('',(#118));
#120=FACE_BOUND('',#119,.T.);
#121=CARTESIAN_POINT('',(-61.47,-13.842669446,130.438638218));
#122=VERTEX_POINT('',#121);
#123=CARTESIAN_POINT('',(-59.82,-13.842669446,130.438638218));
#124=DIRECTION('',(-0.,-0.,-1.));
#125=DIRECTION('',(-1.,0.,0.));
#126=AXIS2_PLACEMENT_3D('',#123,#124,#125);
#127=CIRCLE('',#126,1.65);
#128=EDGE_CURVE('NONE',#122,#122,#127,.T.);
#129=ORIENTED_EDGE('',*,*,#128,.F.);
#130=EDGE_LOOP('',(#129));
#131=FACE_BOUND('',#130,.T.);
#132=CARTESIAN_POINT('',(-61.47,-56.702669446,130.438638218));
#133=VERTEX_POINT('',#132);
#134=CARTESIAN_POINT('',(-59.82,-56.702669446,130.438638218));
#135=DIRECTION('',(-0.,-0.,-1.));
#136=DIRECTION('',(-1.,0.,0.));
#137=AXIS2_PLACEMENT_3D('',#134,#135,#136);
#138=CIRCLE('',#137,1.65);
#139=EDGE_CURVE('NONE',#133,#133,#138,.T.);
#140=ORIENTED_EDGE('',*,*,#139,.F.);
#141=EDGE_LOOP('',(#140));
#142=FACE_BOUND('',#141,.T.);
#143=CARTESIAN_POINT('',(18.54,-13.842669446,130.438638218));
#144=VERTEX_POINT('',#143);
#145=CARTESIAN_POINT('',(20.19,-13.842669446,130.438638218));
#146=DIRECTION('',(-0.,-0.,-1.));
#147=DIRECTION('',(-1.,0.,0.));
#148=AXIS2_PLACEMENT_3D('',#145,#146,#147);
#149=CIRCLE('',#148,1.65);
#150=EDGE_CURVE('NONE',#144,#144,#149,.T.);
#151=ORIENTED_EDGE('',*,*,#150,.F.);
#152=EDGE_LOOP('',(#151));
#153=FACE_BOUND('',#152,.T.);
#154=CARTESIAN_POINT('',(-40.884000003,-58.24867027,130.438638218));
#155=VERTEX_POINT('',#154);
#156=CARTESIAN_POINT('',(-42.084000003,-58.24867027,130.438638218));
#157=DIRECTION('',(-0.,-0.,-1.));
#158=DIRECTION('',(1.,-0.,-0.));
#159=AXIS2_PLACEMENT_3D('',#156,#157,#158);
#160=CIRCLE('',#159,1.2);
#161=EDGE_CURVE('NONE',#155,#155,#160,.T.);
#162=ORIENTED_EDGE('',*,*,#161,.F.);
#163=EDGE_LOOP('',(#162));
#164=FACE_BOUND('',#163,.T.);
#165=CARTESIAN_POINT('',(-4.884000003,-58.24867027,130.438638218));
#166=VERTEX_POINT('',#165);
#167=CARTESIAN_POINT('',(-6.084000003,-58.24867027,130.438638218));
#168=DIRECTION('',(-0.,-0.,-1.));
#169=DIRECTION('',(1.,-0.,-0.));
#170=AXIS2_PLACEMENT_3D('',#167,#168,#169);
#171=CIRCLE('',#170,1.2);
#172=EDGE_CURVE('NONE',#166,#166,#171,.T.);
#173=ORIENTED_EDGE('',*,*,#172,.F.);
#174=EDGE_LOOP('',(#173));
#175=FACE_BOUND('',#174,.T.);
#176=CARTESIAN_POINT('',(-4.884000003,-22.24867027,130.438638218));
#177=VERTEX_POINT('',#176);
#178=CARTESIAN_POINT('',(-6.084000003,-22.24867027,130.438638218));
#179=DIRECTION('',(-0.,-0.,-1.));
#180=DIRECTION('',(1.,-0.,-0.));
#181=AXIS2_PLACEMENT_3D('',#178,#179,#180);
#182=CIRCLE('',#181,1.2);
#183=EDGE_CURVE('NONE',#177,#177,#182,.T.);
#184=ORIENTED_EDGE('',*,*,#183,.F.);
#185=EDGE_LOOP('',(#184));
#186=FACE_BOUND('',#185,.T.);
#187=CARTESIAN_POINT('',(-40.884000003,-22.24867027,130.438638218));
#188=VERTEX_POINT('',#187);
#189=CARTESIAN_POINT('',(-42.084000003,-22.24867027,130.438638218));
#190=DIRECTION('',(-0.,-0.,-1.));
#191=DIRECTION('',(1.,-0.,-0.));
#192=AXIS2_PLACEMENT_3D('',#189,#190,#191);
#193=CIRCLE('',#192,1.2);
#194=EDGE_CURVE('NONE',#188,#188,#193,.T.);
#195=ORIENTED_EDGE('',*,*,#194,.F.);
#196=EDGE_LOOP('',(#195));
#197=FACE_BOUND('',#196,.T.);
#198=CARTESIAN_POINT('',(-26.32,-9.890781829,130.438638218));
#199=VERTEX_POINT('',#198);
#200=CARTESIAN_POINT('',(-23.22,-9.890781829,130.438638218));
#201=DIRECTION('',(0.,0.,1.));
#202=DIRECTION('',(-1.,0.,0.));
#203=AXIS2_PLACEMENT_3D('',#200,#201,#202);
#204=CIRCLE('',#203,3.1);
#205=EDGE_CURVE('NONE',#199,#199,#204,.T.);
#206=ORIENTED_EDGE('',*,*,#205,.T.);
#207=EDGE_LOOP('',(#206));
#208=FACE_BOUND('',#207,.T.);
#209=CARTESIAN_POINT('',(-2.62,0.109218171,130.438638218));
#210=VERTEX_POINT('',#209);
#211=CARTESIAN_POINT('',(0.48,0.109218171,130.438638218));
#212=DIRECTION('',(0.,0.,1.));
#213=DIRECTION('',(-1.,0.,0.));
#214=AXIS2_PLACEMENT_3D('',#211,#212,#213);
#215=CIRCLE('',#214,3.1);
#216=EDGE_CURVE('NONE',#210,#210,#215,.T.);
#217=ORIENTED_EDGE('',*,*,#216,.T.);
#218=EDGE_LOOP('',(#217));
#219=FACE_BOUND('',#218,.T.);
#220=CARTESIAN_POINT('',(-24.82,10.109218171,130.438638218));
#221=VERTEX_POINT('',#220);
#222=CARTESIAN_POINT('',(-23.22,10.109218171,130.438638218));
#223=DIRECTION('',(-0.,-0.,-1.));
#224=DIRECTION('',(-1.,0.,0.));
#225=AXIS2_PLACEMENT_3D('',#222,#223,#224);
#226=CIRCLE('',#225,1.6);
#227=EDGE_CURVE('NONE',#221,#221,#226,.T.);
#228=ORIENTED_EDGE('',*,*,#227,.F.);
#229=EDGE_LOOP('',(#228));
#230=FACE_BOUND('',#229,.T.);
#231=CARTESIAN_POINT('',(26.78,-57.93171566,130.438638218));
#232=VERTEX_POINT('',#231);
#233=CARTESIAN_POINT('',(26.78,9.687330554,130.438638218));
#234=VERTEX_POINT('',#233);
#235=CARTESIAN_POINT('',(26.78,-57.93171566,130.438638218));
#236=DIRECTION('',(0.,1.,-0.));
#237=VECTOR('',#236,67.619046215);
#238=LINE('',#235,#237);
#239=EDGE_CURVE('',#232,#234,#238,.T.);
#240=ORIENTED_EDGE('',*,*,#239,.F.);
#241=CARTESIAN_POINT('',(23.711919797,-60.312669446,130.438638218));
#242=VERTEX_POINT('',#241);
#243=CARTESIAN_POINT('',(-20.72,0.109218171,130.438638218));
#244=DIRECTION('',(-0.,-0.,-1.));
#245=DIRECTION('',(-1.,0.,0.));
#246=AXIS2_PLACEMENT_3D('',#243,#244,#245);
#247=CIRCLE('',#246,75.);
#248=EDGE_CURVE('',#232,#242,#247,.T.);
#249=ORIENTED_EDGE('',*,*,#248,.T.);
#250=CARTESIAN_POINT('',(-63.22,-60.312669446,130.438638218));
#251=VERTEX_POINT('',#250);
#252=CARTESIAN_POINT('',(-63.22,-60.312669446,130.438638218));
#253=DIRECTION('',(1.,-0.,-0.));
#254=VECTOR('',#253,86.931919797);
#255=LINE('',#252,#254);
#256=EDGE_CURVE('NONE',#251,#242,#255,.T.);
#257=ORIENTED_EDGE('',*,*,#256,.F.);
#258=CARTESIAN_POINT('',(-63.22,-9.890781829,130.438638218));
#259=VERTEX_POINT('',#258);
#260=CARTESIAN_POINT('',(-63.22,-9.890781829,130.438638218));
#261=DIRECTION('',(-0.,-1.,0.));
#262=VECTOR('',#261,50.421887617);
#263=LINE('',#260,#262);
#264=EDGE_CURVE('NONE',#259,#251,#263,.T.);
#265=ORIENTED_EDGE('',*,*,#264,.F.);
#266=CARTESIAN_POINT('',(-38.040508076,-9.890781829,130.438638218));
#267=VERTEX_POINT('',#266);
#268=CARTESIAN_POINT('',(-38.040508076,-9.890781829,130.438638218));
#269=DIRECTION('',(-1.,0.,0.));
#270=VECTOR('',#269,25.179491924);
#271=LINE('',#268,#270);
#272=EDGE_CURVE('NONE',#267,#259,#271,.T.);
#273=ORIENTED_EDGE('',*,*,#272,.F.);
#274=CARTESIAN_POINT('',(-38.040508076,10.187330554,130.438638218));
#275=VERTEX_POINT('',#274);
#276=CARTESIAN_POINT('',(-38.040508076,-9.890781829,130.438638218));
#277=DIRECTION('',(0.,1.,-0.));
#278=VECTOR('',#277,20.078112383);
#279=LINE('',#276,#278);
#280=EDGE_CURVE('NONE',#267,#275,#279,.T.);
#281=ORIENTED_EDGE('',*,*,#280,.T.);
#282=CARTESIAN_POINT('',(-26.319015723,10.187330554,130.438638218));
#283=VERTEX_POINT('',#282);
#284=CARTESIAN_POINT('',(-38.040508076,10.187330554,130.438638218));
#285=DIRECTION('',(1.,-0.,-0.));
#286=VECTOR('',#285,11.721492352);
#287=LINE('',#284,#286);
#288=EDGE_CURVE('NONE',#275,#283,#287,.T.);
#289=ORIENTED_EDGE('',*,*,#288,.T.);
#290=CARTESIAN_POINT('',(-20.120984276,10.187330554,130.438638218));
#291=VERTEX_POINT('',#290);
#292=CARTESIAN_POINT('',(-23.22,10.109218171,130.438638218));
#293=DIRECTION('',(-0.,-0.,-1.));
#294=DIRECTION('',(1.,-0.,-0.));
#295=AXIS2_PLACEMENT_3D('',#292,#293,#294);
#296=CIRCLE('',#295,3.1);
#297=EDGE_CURVE('NONE',#283,#291,#296,.T.);
#298=ORIENTED_EDGE('',*,*,#297,.T.);
#299=CARTESIAN_POINT('',(-3.399491924,10.187330554,130.438638218));
#300=VERTEX_POINT('',#299);
#301=CARTESIAN_POINT('',(-20.120984276,10.187330554,130.438638218));
#302=DIRECTION('',(1.,-0.,-0.));
#303=VECTOR('',#302,16.721492352);
#304=LINE('',#301,#303);
#305=EDGE_CURVE('NONE',#291,#300,#304,.T.);
#306=ORIENTED_EDGE('',*,*,#305,.T.);
#307=CARTESIAN_POINT('',(-3.399491924,9.687330554,130.438638218));
#308=VERTEX_POINT('',#307);
#309=CARTESIAN_POINT('',(-3.399491924,9.687330554,130.438638218));
#310=DIRECTION('',(0.,1.,-0.));
#311=VECTOR('',#310,0.5);
#312=LINE('',#309,#311);
#313=EDGE_CURVE('NONE',#308,#300,#312,.T.);
#314=ORIENTED_EDGE('',*,*,#313,.F.);
#315=CARTESIAN_POINT('',(-3.399491924,9.687330554,130.438638218));
#316=DIRECTION('',(1.,-0.,-0.));
#317=VECTOR('',#316,30.179491924);
#318=LINE('',#315,#317);
#319=EDGE_CURVE('NONE',#308,#234,#318,.T.);
#320=ORIENTED_EDGE('',*,*,#319,.T.);
#321=EDGE_LOOP('',(#240,#249,#257,#265,#273,#281,#289,#298,#306,#314,#320));
#322=FACE_BOUND('',#321,.T.);
#323=ADVANCED_FACE('',(#98,#109,#120,#131,#142,#153,#164,#175,#186,#197,#208,#219,#230,#322),#87,.T.);
#324=CARTESIAN_POINT('',(-38.040508076,9.687330554,135.438638218));
#325=DIRECTION('',(0.,0.,1.));
#326=DIRECTION('',(1.,-0.,-0.));
#327=AXIS2_PLACEMENT_3D('',#324,#325,#326);
#328=PLANE('',#327);
#329=CARTESIAN_POINT('',(21.79,6.157330554,135.438638218));
#330=VERTEX_POINT('',#329);
#331=CARTESIAN_POINT('',(20.19,6.157330554,135.438638218));
#332=DIRECTION('',(0.,0.,1.));
#333=DIRECTION('',(1.,-0.,-0.));
#334=AXIS2_PLACEMENT_3D('',#331,#332,#333);
#335=CIRCLE('',#334,1.6);
#336=EDGE_CURVE('NONE',#330,#330,#335,.T.);
#337=ORIENTED_EDGE('',*,*,#336,.F.);
#338=EDGE_LOOP('',(#337));
#339=FACE_BOUND('',#338,.T.);
#340=CARTESIAN_POINT('',(-58.22,-33.842669446,135.438638218));
#341=VERTEX_POINT('',#340);
#342=CARTESIAN_POINT('',(-59.82,-33.842669446,135.438638218));
#343=DIRECTION('',(0.,0.,1.));
#344=DIRECTION('',(1.,-0.,-0.));
#345=AXIS2_PLACEMENT_3D('',#342,#343,#344);
#346=CIRCLE('',#345,1.6);
#347=EDGE_CURVE('NONE',#341,#341,#346,.T.);
#348=ORIENTED_EDGE('',*,*,#347,.F.);
#349=EDGE_LOOP('',(#348));
#350=FACE_BOUND('',#349,.T.);
#351=CARTESIAN_POINT('',(18.54,-56.702669446,135.438638218));
#352=VERTEX_POINT('',#351);
#353=CARTESIAN_POINT('',(20.19,-56.702669446,135.438638218));
#354=DIRECTION('',(0.,0.,1.));
#355=DIRECTION('',(-1.,0.,0.));
#356=AXIS2_PLACEMENT_3D('',#353,#354,#355);
#357=CIRCLE('',#356,1.65);
#358=EDGE_CURVE('NONE',#352,#352,#357,.T.);
#359=ORIENTED_EDGE('',*,*,#358,.F.);
#360=EDGE_LOOP('',(#359));
#361=FACE_BOUND('',#360,.T.);
#362=CARTESIAN_POINT('',(-61.47,-56.702669446,135.438638218));
#363=VERTEX_POINT('',#362);
#364=CARTESIAN_POINT('',(-59.82,-56.702669446,135.438638218));
#365=DIRECTION('',(0.,0.,1.));
#366=DIRECTION('',(-1.,0.,0.));
#367=AXIS2_PLACEMENT_3D('',#364,#365,#366);
#368=CIRCLE('',#367,1.65);
#369=EDGE_CURVE('NONE',#363,#363,#368,.T.);
#370=ORIENTED_EDGE('',*,*,#369,.F.);
#371=EDGE_LOOP('',(#370));
#372=FACE_BOUND('',#371,.T.);
#373=CARTESIAN_POINT('',(18.54,-13.842669446,135.438638218));
#374=VERTEX_POINT('',#373);
#375=CARTESIAN_POINT('',(20.19,-13.842669446,135.438638218));
#376=DIRECTION('',(0.,0.,1.));
#377=DIRECTION('',(-1.,0.,0.));
#378=AXIS2_PLACEMENT_3D('',#375,#376,#377);
#379=CIRCLE('',#378,1.65);
#380=EDGE_CURVE('NONE',#374,#374,#379,.T.);
#381=ORIENTED_EDGE('',*,*,#380,.F.);
#382=EDGE_LOOP('',(#381));
#383=FACE_BOUND('',#382,.T.);
#384=CARTESIAN_POINT('',(-40.884000003,-58.24867027,135.438638218));
#385=VERTEX_POINT('',#384);
#386=CARTESIAN_POINT('',(-42.084000003,-58.24867027,135.438638218));
#387=DIRECTION('',(0.,0.,1.));
#388=DIRECTION('',(1.,-0.,-0.));
#389=AXIS2_PLACEMENT_3D('',#386,#387,#388);
#390=CIRCLE('',#389,1.2);
#391=EDGE_CURVE('NONE',#385,#385,#390,.T.);
#392=ORIENTED_EDGE('',*,*,#391,.F.);
#393=EDGE_LOOP('',(#392));
#394=FACE_BOUND('',#393,.T.);
#395=CARTESIAN_POINT('',(-4.884000003,-58.24867027,135.438638218));
#396=VERTEX_POINT('',#395);
#397=CARTESIAN_POINT('',(-6.084000003,-58.24867027,135.438638218));
#398=DIRECTION('',(0.,0.,1.));
#399=DIRECTION('',(1.,-0.,-0.));
#400=AXIS2_PLACEMENT_3D('',#397,#398,#399);
#401=CIRCLE('',#400,1.2);
#402=EDGE_CURVE('NONE',#396,#396,#401,.T.);
#403=ORIENTED_EDGE('',*,*,#402,.F.);
#404=EDGE_LOOP('',(#403));
#405=FACE_BOUND('',#404,.T.);
#406=CARTESIAN_POINT('',(-4.884000003,-22.24867027,135.438638218));
#407=VERTEX_POINT('',#406);
#408=CARTESIAN_POINT('',(-6.084000003,-22.24867027,135.438638218));
#409=DIRECTION('',(0.,0.,1.));
#410=DIRECTION('',(1.,-0.,-0.));
#411=AXIS2_PLACEMENT_3D('',#408,#409,#410);
#412=CIRCLE('',#411,1.2);
#413=EDGE_CURVE('NONE',#407,#407,#412,.T.);
#414=ORIENTED_EDGE('',*,*,#413,.F.);
#415=EDGE_LOOP('',(#414));
#416=FACE_BOUND('',#415,.T.);
#417=CARTESIAN_POINT('',(-40.884000003,-22.24867027,135.438638218));
#418=VERTEX_POINT('',#417);
#419=CARTESIAN_POINT('',(-42.084000003,-22.24867027,135.438638218));
#420=DIRECTION('',(0.,0.,1.));
#421=DIRECTION('',(1.,-0.,-0.));
#422=AXIS2_PLACEMENT_3D('',#419,#420,#421);
#423=CIRCLE('',#422,1.2);
#424=EDGE_CURVE('NONE',#418,#418,#423,.T.);
#425=ORIENTED_EDGE('',*,*,#424,.F.);
#426=EDGE_LOOP('',(#425));
#427=FACE_BOUND('',#426,.T.);
#428=CARTESIAN_POINT('',(-24.82,-9.890781829,135.438638218));
#429=VERTEX_POINT('',#428);
#430=CARTESIAN_POINT('',(-23.22,-9.890781829,135.438638218));
#431=DIRECTION('',(0.,0.,1.));
#432=DIRECTION('',(-1.,0.,0.));
#433=AXIS2_PLACEMENT_3D('',#430,#431,#432);
#434=CIRCLE('',#433,1.6);
#435=EDGE_CURVE('NONE',#429,#429,#434,.T.);
#436=ORIENTED_EDGE('',*,*,#435,.F.);
#437=EDGE_LOOP('',(#436));
#438=FACE_BOUND('',#437,.T.);
#439=CARTESIAN_POINT('',(-24.82,10.109218171,135.438638218));
#440=VERTEX_POINT('',#439);
#441=CARTESIAN_POINT('',(-23.22,10.109218171,135.438638218));
#442=DIRECTION('',(0.,0.,1.));
#443=DIRECTION('',(-1.,0.,0.));
#444=AXIS2_PLACEMENT_3D('',#441,#442,#443);
#445=CIRCLE('',#444,1.6);
#446=EDGE_CURVE('NONE',#440,#440,#445,.T.);
#447=ORIENTED_EDGE('',*,*,#446,.F.);
#448=EDGE_LOOP('',(#447));
#449=FACE_BOUND('',#448,.T.);
#450=CARTESIAN_POINT('',(-1.12,0.109218171,135.438638218));
#451=VERTEX_POINT('',#450);
#452=CARTESIAN_POINT('',(0.48,0.109218171,135.438638218));
#453=DIRECTION('',(0.,0.,1.));
#454=DIRECTION('',(-1.,0.,0.));
#455=AXIS2_PLACEMENT_3D('',#452,#453,#454);
#456=CIRCLE('',#455,1.6);
#457=EDGE_CURVE('NONE',#451,#451,#456,.T.);
#458=ORIENTED_EDGE('',*,*,#457,.F.);
#459=EDGE_LOOP('',(#458));
#460=FACE_BOUND('',#459,.T.);
#461=CARTESIAN_POINT('',(23.711919797,-60.312669446,135.438638218));
#462=VERTEX_POINT('',#461);
#463=CARTESIAN_POINT('',(-63.22,-60.312669446,135.438638218));
#464=VERTEX_POINT('',#463);
#465=CARTESIAN_POINT('',(23.711919797,-60.312669446,135.438638218));
#466=DIRECTION('',(-1.,0.,0.));
#467=VECTOR('',#466,86.931919797);
#468=LINE('',#465,#467);
#469=EDGE_CURVE('',#462,#464,#468,.T.);
#470=ORIENTED_EDGE('',*,*,#469,.F.);
#471=CARTESIAN_POINT('',(26.78,-57.93171566,135.438638218));
#472=VERTEX_POINT('',#471);
#473=CARTESIAN_POINT('',(-20.72,0.109218171,135.438638218));
#474=DIRECTION('',(0.,0.,1.));
#475=DIRECTION('',(1.,0.,-0.));
#476=AXIS2_PLACEMENT_3D('',#473,#474,#475);
#477=CIRCLE('',#476,75.);
#478=EDGE_CURVE('',#462,#472,#477,.T.);
#479=ORIENTED_EDGE('',*,*,#478,.T.);
#480=CARTESIAN_POINT('',(26.78,9.687330554,135.438638218));
#481=VERTEX_POINT('',#480);
#482=CARTESIAN_POINT('',(26.78,9.687330554,135.438638218));
#483=DIRECTION('',(-0.,-1.,0.));
#484=VECTOR('',#483,67.619046215);
#485=LINE('',#482,#484);
#486=EDGE_CURVE('NONE',#481,#472,#485,.T.);
#487=ORIENTED_EDGE('',*,*,#486,.F.);
#488=CARTESIAN_POINT('',(-3.399491924,9.687330554,135.438638218));
#489=VERTEX_POINT('',#488);
#490=CARTESIAN_POINT('',(26.78,9.687330554,135.438638218));
#491=DIRECTION('',(-1.,0.,0.));
#492=VECTOR('',#491,30.179491924);
#493=LINE('',#490,#492);
#494=EDGE_CURVE('NONE',#481,#489,#493,.T.);
#495=ORIENTED_EDGE('',*,*,#494,.T.);
#496=CARTESIAN_POINT('',(-3.399491924,15.187330554,135.438638218));
#497=VERTEX_POINT('',#496);
#498=CARTESIAN_POINT('',(-3.399491924,9.687330554,135.438638218));
#499=DIRECTION('',(0.,1.,-0.));
#500=VECTOR('',#499,5.5);
#501=LINE('',#498,#500);
#502=EDGE_CURVE('NONE',#489,#497,#501,.T.);
#503=ORIENTED_EDGE('',*,*,#502,.T.);
#504=CARTESIAN_POINT('',(-38.040508076,15.187330554,135.438638218));
#505=VERTEX_POINT('',#504);
#506=CARTESIAN_POINT('',(-38.040508076,15.187330554,135.438638218));
#507=DIRECTION('',(1.,-0.,-0.));
#508=VECTOR('',#507,34.641016151);
#509=LINE('',#506,#508);
#510=EDGE_CURVE('NONE',#505,#497,#509,.T.);
#511=ORIENTED_EDGE('',*,*,#510,.F.);
#512=CARTESIAN_POINT('',(-38.040508076,-17.890781829,135.438638218));
#513=VERTEX_POINT('',#512);
#514=CARTESIAN_POINT('',(-38.040508076,-17.890781829,135.438638218));
#515=DIRECTION('',(0.,1.,-0.));
#516=VECTOR('',#515,33.078112383);
#517=LINE('',#514,#516);
#518=EDGE_CURVE('NONE',#513,#505,#517,.T.);
#519=ORIENTED_EDGE('',*,*,#518,.F.);
#520=CARTESIAN_POINT('',(-63.22,-17.890781829,135.438638218));
#521=VERTEX_POINT('',#520);
#522=CARTESIAN_POINT('',(-63.22,-17.890781829,135.438638218));
#523=DIRECTION('',(1.,-0.,-0.));
#524=VECTOR('',#523,25.179491924);
#525=LINE('',#522,#524);
#526=EDGE_CURVE('NONE',#521,#513,#525,.T.);
#527=ORIENTED_EDGE('',*,*,#526,.F.);
#528=CARTESIAN_POINT('',(-63.22,-60.312669446,135.438638218));
#529=DIRECTION('',(0.,1.,-0.));
#530=VECTOR('',#529,42.421887617);
#531=LINE('',#528,#530);
#532=EDGE_CURVE('NONE',#464,#521,#531,.T.);
#533=ORIENTED_EDGE('',*,*,#532,.F.);
#534=EDGE_LOOP('',(#470,#479,#487,#495,#503,#511,#519,#527,#533));
#535=FACE_BOUND('',#534,.T.);
#536=ADVANCED_FACE('',(#339,#350,#361,#372,#383,#394,#405,#416,#427,#438,#449,#460,#535),#328,.T.);
#537=CARTESIAN_POINT('',(26.78,17.687330554,135.438638218));
#538=DIRECTION('',(-1.,0.,0.));
#539=DIRECTION('',(0.,0.,1.));
#540=AXIS2_PLACEMENT_3D('',#537,#538,#539);
#541=PLANE('',#540);
#542=CARTESIAN_POINT('',(26.78,-57.93171566,130.438638218));
#543=DIRECTION('',(0.,0.,1.));
#544=VECTOR('',#543,5.);
#545=LINE('',#542,#544);
#546=EDGE_CURVE('',#232,#472,#545,.T.);
#547=ORIENTED_EDGE('',*,*,#546,.F.);
#548=ORIENTED_EDGE('',*,*,#239,.T.);
#549=CARTESIAN_POINT('',(26.78,9.687330554,130.438638218));
#550=DIRECTION('',(0.,0.,1.));
#551=VECTOR('',#550,5.);
#552=LINE('',#549,#551);
#553=EDGE_CURVE('NONE',#234,#481,#552,.T.);
#554=ORIENTED_EDGE('',*,*,#553,.T.);
#555=ORIENTED_EDGE('',*,*,#486,.T.);
#556=EDGE_LOOP('',(#547,#548,#554,#555));
#557=FACE_BOUND('',#556,.T.);
#558=ADVANCED_FACE('',(#557),#541,.F.);
#559=CARTESIAN_POINT('',(-20.72,-60.312669446,135.438638218));
#560=DIRECTION('',(-0.,-1.,0.));
#561=DIRECTION('',(0.,0.,1.));
#562=AXIS2_PLACEMENT_3D('',#559,#560,#561);
#563=PLANE('',#562);
#564=ORIENTED_EDGE('',*,*,#256,.T.);
#565=CARTESIAN_POINT('',(23.711919797,-60.312669446,130.438638218));
#566=DIRECTION('',(0.,0.,1.));
#567=VECTOR('',#566,5.);
#568=LINE('',#565,#567);
#569=EDGE_CURVE('',#242,#462,#568,.T.);
#570=ORIENTED_EDGE('',*,*,#569,.T.);
#571=ORIENTED_EDGE('',*,*,#469,.T.);
#572=CARTESIAN_POINT('',(-63.22,-60.312669446,135.438638218));
#573=DIRECTION('',(-0.,-0.,-1.));
#574=VECTOR('',#573,5.);
#575=LINE('',#572,#574);
#576=EDGE_CURVE('NONE',#464,#251,#575,.T.);
#577=ORIENTED_EDGE('',*,*,#576,.T.);
#578=EDGE_LOOP('',(#564,#570,#571,#577));
#579=FACE_BOUND('',#578,.T.);
#580=ADVANCED_FACE('',(#579),#563,.T.);
#581=CARTESIAN_POINT('',(20.19,6.157330554,115.438638218));
#582=DIRECTION('',(0.,0.,1.));
#583=DIRECTION('',(1.,-0.,-0.));
#584=AXIS2_PLACEMENT_3D('',#581,#582,#583);
#585=CYLINDRICAL_SURFACE('',#584,1.6);
#586=CARTESIAN_POINT('',(21.79,6.157330554,135.438638218));
#587=DIRECTION('',(-0.,-0.,-1.));
#588=VECTOR('',#587,5.);
#589=LINE('',#586,#588);
#590=EDGE_CURVE('',#330,#89,#589,.T.);
#591=ORIENTED_EDGE('',*,*,#590,.F.);
#592=ORIENTED_EDGE('',*,*,#336,.T.);
#593=ORIENTED_EDGE('',*,*,#590,.T.);
#594=ORIENTED_EDGE('',*,*,#95,.T.);
#595=EDGE_LOOP('',(#591,#592,#593,#594));
#596=FACE_BOUND('',#595,.T.);
#597=ADVANCED_FACE('NONE',(#596),#585,.F.);
#598=CARTESIAN_POINT('',(-59.82,-33.842669446,115.438638218));
#599=DIRECTION('',(0.,0.,1.));
#600=DIRECTION('',(1.,-0.,-0.));
#601=AXIS2_PLACEMENT_3D('',#598,#599,#600);
#602=CYLINDRICAL_SURFACE('',#601,1.6);
#603=CARTESIAN_POINT('',(-58.22,-33.842669446,135.438638218));
#604=DIRECTION('',(-0.,-0.,-1.));
#605=VECTOR('',#604,5.);
#606=LINE('',#603,#605);
#607=EDGE_CURVE('',#341,#100,#606,.T.);
#608=ORIENTED_EDGE('',*,*,#607,.F.);
#609=ORIENTED_EDGE('',*,*,#347,.T.);
#610=ORIENTED_EDGE('',*,*,#607,.T.);
#611=ORIENTED_EDGE('',*,*,#106,.T.);
#612=EDGE_LOOP('',(#608,#609,#610,#611));
#613=FACE_BOUND('',#612,.T.);
#614=ADVANCED_FACE('NONE',(#613),#602,.F.);
#615=CARTESIAN_POINT('',(20.19,-56.702669446,150.438638218));
#616=DIRECTION('',(-0.,-0.,-1.));
#617=DIRECTION('',(-1.,0.,0.));
#618=AXIS2_PLACEMENT_3D('',#615,#616,#617);
#619=CYLINDRICAL_SURFACE('',#618,1.65);
#620=CARTESIAN_POINT('',(18.54,-56.702669446,130.438638218));
#621=DIRECTION('',(0.,0.,1.));
#622=VECTOR('',#621,5.);
#623=LINE('',#620,#622);
#624=EDGE_CURVE('',#111,#352,#623,.T.);
#625=ORIENTED_EDGE('',*,*,#624,.F.);
#626=ORIENTED_EDGE('',*,*,#117,.T.);
#627=ORIENTED_EDGE('',*,*,#624,.T.);
#628=ORIENTED_EDGE('',*,*,#358,.T.);
#629=EDGE_LOOP('',(#625,#626,#627,#628));
#630=FACE_BOUND('',#629,.T.);
#631=ADVANCED_FACE('NONE',(#630),#619,.F.);
#632=CARTESIAN_POINT('',(-59.82,-13.842669446,150.438638218));
#633=DIRECTION('',(-0.,-0.,-1.));
#634=DIRECTION('',(-1.,0.,0.));
#635=AXIS2_PLACEMENT_3D('',#632,#633,#634);
#636=CYLINDRICAL_SURFACE('',#635,1.65);
#637=CARTESIAN_POINT('',(-61.47,-13.842669446,132.438638218));
#638=VERTEX_POINT('',#637);
#639=CARTESIAN_POINT('',(-61.47,-13.842669446,130.438638218));
#640=DIRECTION('',(0.,0.,1.));
#641=VECTOR('',#640,2.);
#642=LINE('',#639,#641);
#643=EDGE_CURVE('',#122,#638,#642,.T.);
#644=ORIENTED_EDGE('',*,*,#643,.F.);
#645=ORIENTED_EDGE('',*,*,#128,.T.);
#646=ORIENTED_EDGE('',*,*,#643,.T.);
#647=CARTESIAN_POINT('',(-59.82,-13.842669446,132.438638218));
#648=DIRECTION('',(0.,0.,1.));
#649=DIRECTION('',(-1.,0.,0.));
#650=AXIS2_PLACEMENT_3D('',#647,#648,#649);
#651=CIRCLE('',#650,1.65);
#652=EDGE_CURVE('NONE',#638,#638,#651,.T.);
#653=ORIENTED_EDGE('',*,*,#652,.T.);
#654=EDGE_LOOP('',(#644,#645,#646,#653));
#655=FACE_BOUND('',#654,.T.);
#656=ADVANCED_FACE('NONE',(#655),#636,.F.);
#657=CARTESIAN_POINT('',(-59.82,-56.702669446,150.438638218));
#658=DIRECTION('',(-0.,-0.,-1.));
#659=DIRECTION('',(-1.,0.,0.));
#660=AXIS2_PLACEMENT_3D('',#657,#658,#659);
#661=CYLINDRICAL_SURFACE('',#660,1.65);
#662=CARTESIAN_POINT('',(-61.47,-56.702669446,130.438638218));
#663=DIRECTION('',(0.,0.,1.));
#664=VECTOR('',#663,5.);
#665=LINE('',#662,#664);
#666=EDGE_CURVE('',#133,#363,#665,.T.);
#667=ORIENTED_EDGE('',*,*,#666,.F.);
#668=ORIENTED_EDGE('',*,*,#139,.T.);
#669=ORIENTED_EDGE('',*,*,#666,.T.);
#670=ORIENTED_EDGE('',*,*,#369,.T.);
#671=EDGE_LOOP('',(#667,#668,#669,#670));
#672=FACE_BOUND('',#671,.T.);
#673=ADVANCED_FACE('NONE',(#672),#661,.F.);
#674=CARTESIAN_POINT('',(20.19,-13.842669446,150.438638218));
#675=DIRECTION('',(-0.,-0.,-1.));
#676=DIRECTION('',(-1.,0.,0.));
#677=AXIS2_PLACEMENT_3D('',#674,#675,#676);
#678=CYLINDRICAL_SURFACE('',#677,1.65);
#679=CARTESIAN_POINT('',(18.54,-13.842669446,130.438638218));
#680=DIRECTION('',(0.,0.,1.));
#681=VECTOR('',#680,5.);
#682=LINE('',#679,#681);
#683=EDGE_CURVE('',#144,#374,#682,.T.);
#684=ORIENTED_EDGE('',*,*,#683,.F.);
#685=ORIENTED_EDGE('',*,*,#150,.T.);
#686=ORIENTED_EDGE('',*,*,#683,.T.);
#687=ORIENTED_EDGE('',*,*,#380,.T.);
#688=EDGE_LOOP('',(#684,#685,#686,#687));
#689=FACE_BOUND('',#688,.T.);
#690=ADVANCED_FACE('NONE',(#689),#678,.F.);
#691=CARTESIAN_POINT('',(-42.084000003,-58.24867027,115.438638218));
#692=DIRECTION('',(0.,0.,1.));
#693=DIRECTION('',(1.,-0.,-0.));
#694=AXIS2_PLACEMENT_3D('',#691,#692,#693);
#695=CYLINDRICAL_SURFACE('',#694,1.2);
#696=CARTESIAN_POINT('',(-40.884000003,-58.24867027,135.438638218));
#697=DIRECTION('',(-0.,-0.,-1.));
#698=VECTOR('',#697,5.);
#699=LINE('',#696,#698);
#700=EDGE_CURVE('',#385,#155,#699,.T.);
#701=ORIENTED_EDGE('',*,*,#700,.F.);
#702=ORIENTED_EDGE('',*,*,#391,.T.);
#703=ORIENTED_EDGE('',*,*,#700,.T.);
#704=ORIENTED_EDGE('',*,*,#161,.T.);
#705=EDGE_LOOP('',(#701,#702,#703,#704));
#706=FACE_BOUND('',#705,.T.);
#707=ADVANCED_FACE('NONE',(#706),#695,.F.);
#708=CARTESIAN_POINT('',(-6.084000003,-58.24867027,115.438638218));
#709=DIRECTION('',(0.,0.,1.));
#710=DIRECTION('',(1.,-0.,-0.));
#711=AXIS2_PLACEMENT_3D('',#708,#709,#710);
#712=CYLINDRICAL_SURFACE('',#711,1.2);
#713=CARTESIAN_POINT('',(-4.884000003,-58.24867027,135.438638218));
#714=DIRECTION('',(-0.,-0.,-1.));
#715=VECTOR('',#714,5.);
#716=LINE('',#713,#715);
#717=EDGE_CURVE('',#396,#166,#716,.T.);
#718=ORIENTED_EDGE('',*,*,#717,.F.);
#719=ORIENTED_EDGE('',*,*,#402,.T.);
#720=ORIENTED_EDGE('',*,*,#717,.T.);
#721=ORIENTED_EDGE('',*,*,#172,.T.);
#722=EDGE_LOOP('',(#718,#719,#720,#721));
#723=FACE_BOUND('',#722,.T.);
#724=ADVANCED_FACE('NONE',(#723),#712,.F.);
#725=CARTESIAN_POINT('',(-6.084000003,-22.24867027,115.438638218));
#726=DIRECTION('',(0.,0.,1.));
#727=DIRECTION('',(1.,-0.,-0.));
#728=AXIS2_PLACEMENT_3D('',#725,#726,#727);
#729=CYLINDRICAL_SURFACE('',#728,1.2);
#730=CARTESIAN_POINT('',(-4.884000003,-22.24867027,135.438638218));
#731=DIRECTION('',(-0.,-0.,-1.));
#732=VECTOR('',#731,5.);
#733=LINE('',#730,#732);
#734=EDGE_CURVE('',#407,#177,#733,.T.);
#735=ORIENTED_EDGE('',*,*,#734,.F.);
#736=ORIENTED_EDGE('',*,*,#413,.T.);
#737=ORIENTED_EDGE('',*,*,#734,.T.);
#738=ORIENTED_EDGE('',*,*,#183,.T.);
#739=EDGE_LOOP('',(#735,#736,#737,#738));
#740=FACE_BOUND('',#739,.T.);
#741=ADVANCED_FACE('NONE',(#740),#729,.F.);
#742=CARTESIAN_POINT('',(-42.084000003,-22.24867027,115.438638218));
#743=DIRECTION('',(0.,0.,1.));
#744=DIRECTION('',(1.,-0.,-0.));
#745=AXIS2_PLACEMENT_3D('',#742,#743,#744);
#746=CYLINDRICAL_SURFACE('',#745,1.2);
#747=CARTESIAN_POINT('',(-40.884000003,-22.24867027,135.438638218));
#748=DIRECTION('',(-0.,-0.,-1.));
#749=VECTOR('',#748,5.);
#750=LINE('',#747,#749);
#751=EDGE_CURVE('',#418,#188,#750,.T.);
#752=ORIENTED_EDGE('',*,*,#751,.F.);
#753=ORIENTED_EDGE('',*,*,#424,.T.);
#754=ORIENTED_EDGE('',*,*,#751,.T.);
#755=ORIENTED_EDGE('',*,*,#194,.T.);
#756=EDGE_LOOP('',(#752,#753,#754,#755));
#757=FACE_BOUND('',#756,.T.);
#758=ADVANCED_FACE('NONE',(#757),#746,.F.);
#759=CARTESIAN_POINT('',(0.48,0.109218171,131.938638218));
#760=DIRECTION('',(-0.,-0.,-1.));
#761=DIRECTION('',(-1.,0.,0.));
#762=AXIS2_PLACEMENT_3D('',#759,#760,#761);
#763=CONICAL_SURFACE('',#762,1.6,45.);
#764=CARTESIAN_POINT('',(-1.12,0.109218171,131.938638218));
#765=VERTEX_POINT('',#764);
#766=CARTESIAN_POINT('',(-2.62,0.109218171,130.438638218));
#767=DIRECTION('',(0.707106781,-0.,0.707106781));
#768=VECTOR('',#767,2.121320344);
#769=LINE('',#766,#768);
#770=EDGE_CURVE('',#210,#765,#769,.T.);
#771=ORIENTED_EDGE('',*,*,#770,.F.);
#772=ORIENTED_EDGE('',*,*,#216,.F.);
#773=ORIENTED_EDGE('',*,*,#770,.T.);
#774=CARTESIAN_POINT('',(0.48,0.109218171,131.938638218));
#775=DIRECTION('',(-0.,-0.,-1.));
#776=DIRECTION('',(-1.,0.,0.));
#777=AXIS2_PLACEMENT_3D('',#774,#775,#776);
#778=CIRCLE('',#777,1.6);
#779=EDGE_CURVE('NONE',#765,#765,#778,.T.);
#780=ORIENTED_EDGE('',*,*,#779,.F.);
#781=EDGE_LOOP('',(#771,#772,#773,#780));
#782=FACE_BOUND('',#781,.T.);
#783=ADVANCED_FACE('NONE',(#782),#763,.F.);
#784=CARTESIAN_POINT('',(-23.22,-9.890781829,131.938638218));
#785=DIRECTION('',(-0.,-0.,-1.));
#786=DIRECTION('',(-1.,0.,0.));
#787=AXIS2_PLACEMENT_3D('',#784,#785,#786);
#788=CONICAL_SURFACE('',#787,1.6,45.);
#789=CARTESIAN_POINT('',(-24.82,-9.890781829,131.938638218));
#790=VERTEX_POINT('',#789);
#791=CARTESIAN_POINT('',(-26.32,-9.890781829,130.438638218));
#792=DIRECTION('',(0.707106781,-0.,0.707106781));
#793=VECTOR('',#792,2.121320344);
#794=LINE('',#791,#793);
#795=EDGE_CURVE('',#199,#790,#794,.T.);
#796=ORIENTED_EDGE('',*,*,#795,.F.);
#797=ORIENTED_EDGE('',*,*,#205,.F.);
#798=ORIENTED_EDGE('',*,*,#795,.T.);
#799=CARTESIAN_POINT('',(-23.22,-9.890781829,131.938638218));
#800=DIRECTION('',(-0.,-0.,-1.));
#801=DIRECTION('',(-1.,0.,0.));
#802=AXIS2_PLACEMENT_3D('',#799,#800,#801);
#803=CIRCLE('',#802,1.6);
#804=EDGE_CURVE('NONE',#790,#790,#803,.T.);
#805=ORIENTED_EDGE('',*,*,#804,.F.);
#806=EDGE_LOOP('',(#796,#797,#798,#805));
#807=FACE_BOUND('',#806,.T.);
#808=ADVANCED_FACE('NONE',(#807),#788,.F.);
#809=CARTESIAN_POINT('',(-23.22,-9.890781829,150.438638218));
#810=DIRECTION('',(-0.,-0.,-1.));
#811=DIRECTION('',(-1.,0.,0.));
#812=AXIS2_PLACEMENT_3D('',#809,#810,#811);
#813=CYLINDRICAL_SURFACE('',#812,1.6);
#814=CARTESIAN_POINT('',(-24.82,-9.890781829,131.938638218));
#815=DIRECTION('',(0.,0.,1.));
#816=VECTOR('',#815,3.5);
#817=LINE('',#814,#816);
#818=EDGE_CURVE('',#790,#429,#817,.T.);
#819=ORIENTED_EDGE('',*,*,#818,.F.);
#820=ORIENTED_EDGE('',*,*,#804,.T.);
#821=ORIENTED_EDGE('',*,*,#818,.T.);
#822=ORIENTED_EDGE('',*,*,#435,.T.);
#823=EDGE_LOOP('',(#819,#820,#821,#822));
#824=FACE_BOUND('',#823,.T.);
#825=ADVANCED_FACE('NONE',(#824),#813,.F.);
#826=CARTESIAN_POINT('',(0.48,0.109218171,150.438638218));
#827=DIRECTION('',(-0.,-0.,-1.));
#828=DIRECTION('',(-1.,0.,0.));
#829=AXIS2_PLACEMENT_3D('',#826,#827,#828);
#830=CYLINDRICAL_SURFACE('',#829,1.6);
#831=CARTESIAN_POINT('',(-1.12,0.109218171,131.938638218));
#832=DIRECTION('',(0.,0.,1.));
#833=VECTOR('',#832,3.5);
#834=LINE('',#831,#833);
#835=EDGE_CURVE('',#765,#451,#834,.T.);
#836=ORIENTED_EDGE('',*,*,#835,.F.);
#837=ORIENTED_EDGE('',*,*,#779,.T.);
#838=ORIENTED_EDGE('',*,*,#835,.T.);
#839=ORIENTED_EDGE('',*,*,#457,.T.);
#840=EDGE_LOOP('',(#836,#837,#838,#839));
#841=FACE_BOUND('',#840,.T.);
#842=ADVANCED_FACE('NONE',(#841),#830,.F.);
#843=CARTESIAN_POINT('',(-13.97,15.187330554,144.629981169));
#844=DIRECTION('',(-0.,-1.,0.));
#845=DIRECTION('',(0.,0.,1.));
#846=AXIS2_PLACEMENT_3D('',#843,#844,#845);
#847=CYLINDRICAL_SURFACE('',#846,3.25);
#848=CARTESIAN_POINT('',(-13.97,15.187330554,147.879981169));
#849=VERTEX_POINT('',#848);
#850=CARTESIAN_POINT('',(-13.97,18.187330554,147.879981169));
#851=VERTEX_POINT('',#850);
#852=CARTESIAN_POINT('',(-13.97,15.187330554,147.879981169));
#853=DIRECTION('',(0.,1.,-0.));
#854=VECTOR('',#853,3.);
#855=LINE('',#852,#854);
#856=EDGE_CURVE('',#849,#851,#855,.T.);
#857=ORIENTED_EDGE('',*,*,#856,.F.);
#858=CARTESIAN_POINT('',(-13.97,15.187330554,144.629981169));
#859=DIRECTION('',(-0.,-1.,0.));
#860=DIRECTION('',(0.,0.,1.));
#861=AXIS2_PLACEMENT_3D('',#858,#859,#860);
#862=CIRCLE('',#861,3.25);
#863=EDGE_CURVE('NONE',#849,#849,#862,.T.);
#864=ORIENTED_EDGE('',*,*,#863,.T.);
#865=ORIENTED_EDGE('',*,*,#856,.T.);
#866=CARTESIAN_POINT('',(-13.97,18.187330554,144.629981169));
#867=DIRECTION('',(-0.,-1.,0.));
#868=DIRECTION('',(0.,0.,1.));
#869=AXIS2_PLACEMENT_3D('',#866,#867,#868);
#870=CIRCLE('',#869,3.25);
#871=EDGE_CURVE('NONE',#851,#851,#870,.T.);
#872=ORIENTED_EDGE('',*,*,#871,.F.);
#873=EDGE_LOOP('',(#857,#864,#865,#872));
#874=FACE_BOUND('',#873,.T.);
#875=ADVANCED_FACE('NONE',(#874),#847,.F.);
#876=CARTESIAN_POINT('',(-13.97,15.187330554,144.629981169));
#877=DIRECTION('',(-0.,-1.,0.));
#878=DIRECTION('',(0.,0.,1.));
#879=AXIS2_PLACEMENT_3D('',#876,#877,#878);
#880=CYLINDRICAL_SURFACE('',#879,1.6);
#881=CARTESIAN_POINT('',(-13.97,18.187330554,146.229981169));
#882=VERTEX_POINT('',#881);
#883=CARTESIAN_POINT('',(-13.97,20.187330554,146.229981169));
#884=VERTEX_POINT('',#883);
#885=CARTESIAN_POINT('',(-13.97,18.187330554,146.229981169));
#886=DIRECTION('',(0.,1.,-0.));
#887=VECTOR('',#886,2.);
#888=LINE('',#885,#887);
#889=EDGE_CURVE('',#882,#884,#888,.T.);
#890=ORIENTED_EDGE('',*,*,#889,.F.);
#891=CARTESIAN_POINT('',(-13.97,18.187330554,144.629981169));
#892=DIRECTION('',(-0.,-1.,0.));
#893=DIRECTION('',(0.,0.,1.));
#894=AXIS2_PLACEMENT_3D('',#891,#892,#893);
#895=CIRCLE('',#894,1.6);
#896=EDGE_CURVE('NONE',#882,#882,#895,.T.);
#897=ORIENTED_EDGE('',*,*,#896,.T.);
#898=ORIENTED_EDGE('',*,*,#889,.T.);
#899=CARTESIAN_POINT('',(-13.97,20.187330554,144.629981169));
#900=DIRECTION('',(-0.,-1.,0.));
#901=DIRECTION('',(0.,0.,1.));
#902=AXIS2_PLACEMENT_3D('',#899,#900,#901);
#903=CIRCLE('',#902,1.6);
#904=EDGE_CURVE('NONE',#884,#884,#903,.T.);
#905=ORIENTED_EDGE('',*,*,#904,.F.);
#906=EDGE_LOOP('',(#890,#897,#898,#905));
#907=FACE_BOUND('',#906,.T.);
#908=ADVANCED_FACE('NONE',(#907),#880,.F.);
#909=CARTESIAN_POINT('',(-27.47,15.187330554,121.247295267));
#910=DIRECTION('',(-0.,-1.,0.));
#911=DIRECTION('',(0.,0.,1.));
#912=AXIS2_PLACEMENT_3D('',#909,#910,#911);
#913=CYLINDRICAL_SURFACE('',#912,3.25);
#914=CARTESIAN_POINT('',(-27.47,15.187330554,124.497295267));
#915=VERTEX_POINT('',#914);
#916=CARTESIAN_POINT('',(-27.47,18.187330554,124.497295267));
#917=VERTEX_POINT('',#916);
#918=CARTESIAN_POINT('',(-27.47,15.187330554,124.497295267));
#919=DIRECTION('',(0.,1.,-0.));
#920=VECTOR('',#919,3.);
#921=LINE('',#918,#920);
#922=EDGE_CURVE('',#915,#917,#921,.T.);
#923=ORIENTED_EDGE('',*,*,#922,.F.);
#924=CARTESIAN_POINT('',(-27.47,15.187330554,121.247295267));
#925=DIRECTION('',(-0.,-1.,0.));
#926=DIRECTION('',(0.,0.,1.));
#927=AXIS2_PLACEMENT_3D('',#924,#925,#926);
#928=CIRCLE('',#927,3.25);
#929=EDGE_CURVE('NONE',#915,#915,#928,.T.);
#930=ORIENTED_EDGE('',*,*,#929,.T.);
#931=ORIENTED_EDGE('',*,*,#922,.T.);
#932=CARTESIAN_POINT('',(-27.47,18.187330554,121.247295267));
#933=DIRECTION('',(-0.,-1.,0.));
#934=DIRECTION('',(0.,0.,1.));
#935=AXIS2_PLACEMENT_3D('',#932,#933,#934);
#936=CIRCLE('',#935,3.25);
#937=EDGE_CURVE('NONE',#917,#917,#936,.T.);
#938=ORIENTED_EDGE('',*,*,#937,.F.);
#939=EDGE_LOOP('',(#923,#930,#931,#938));
#940=FACE_BOUND('',#939,.T.);
#941=ADVANCED_FACE('NONE',(#940),#913,.F.);
#942=CARTESIAN_POINT('',(-27.47,15.187330554,121.247295267));
#943=DIRECTION('',(-0.,-1.,0.));
#944=DIRECTION('',(0.,0.,1.));
#945=AXIS2_PLACEMENT_3D('',#942,#943,#944);
#946=CYLINDRICAL_SURFACE('',#945,1.6);
#947=CARTESIAN_POINT('',(-27.47,18.187330554,122.847295267));
#948=VERTEX_POINT('',#947);
#949=CARTESIAN_POINT('',(-27.47,20.187330554,122.847295267));
#950=VERTEX_POINT('',#949);
#951=CARTESIAN_POINT('',(-27.47,18.187330554,122.847295267));
#952=DIRECTION('',(0.,1.,-0.));
#953=VECTOR('',#952,2.);
#954=LINE('',#951,#953);
#955=EDGE_CURVE('',#948,#950,#954,.T.);
#956=ORIENTED_EDGE('',*,*,#955,.F.);
#957=CARTESIAN_POINT('',(-27.47,18.187330554,121.247295267));
#958=DIRECTION('',(-0.,-1.,0.));
#959=DIRECTION('',(0.,0.,1.));
#960=AXIS2_PLACEMENT_3D('',#957,#958,#959);
#961=CIRCLE('',#960,1.6);
#962=EDGE_CURVE('NONE',#948,#948,#961,.T.);
#963=ORIENTED_EDGE('',*,*,#962,.T.);
#964=ORIENTED_EDGE('',*,*,#955,.T.);
#965=CARTESIAN_POINT('',(-27.47,20.187330554,121.247295267));
#966=DIRECTION('',(-0.,-1.,0.));
#967=DIRECTION('',(0.,0.,1.));
#968=AXIS2_PLACEMENT_3D('',#965,#966,#967);
#969=CIRCLE('',#968,1.6);
#970=EDGE_CURVE('NONE',#950,#950,#969,.T.);
#971=ORIENTED_EDGE('',*,*,#970,.F.);
#972=EDGE_LOOP('',(#956,#963,#964,#971));
#973=FACE_BOUND('',#972,.T.);
#974=ADVANCED_FACE('NONE',(#973),#946,.F.);
#975=CARTESIAN_POINT('',(-27.47,15.187330554,144.629981169));
#976=DIRECTION('',(-0.,-1.,0.));
#977=DIRECTION('',(0.,0.,1.));
#978=AXIS2_PLACEMENT_3D('',#975,#976,#977);
#979=CYLINDRICAL_SURFACE('',#978,3.25);
#980=CARTESIAN_POINT('',(-27.47,15.187330554,147.879981169));
#981=VERTEX_POINT('',#980);
#982=CARTESIAN_POINT('',(-27.47,18.187330554,147.879981169));
#983=VERTEX_POINT('',#982);
#984=CARTESIAN_POINT('',(-27.47,15.187330554,147.879981169));
#985=DIRECTION('',(0.,1.,-0.));
#986=VECTOR('',#985,3.);
#987=LINE('',#984,#986);
#988=EDGE_CURVE('',#981,#983,#987,.T.);
#989=ORIENTED_EDGE('',*,*,#988,.F.);
#990=CARTESIAN_POINT('',(-27.47,15.187330554,144.629981169));
#991=DIRECTION('',(-0.,-1.,0.));
#992=DIRECTION('',(0.,0.,1.));
#993=AXIS2_PLACEMENT_3D('',#990,#991,#992);
#994=CIRCLE('',#993,3.25);
#995=EDGE_CURVE('NONE',#981,#981,#994,.T.);
#996=ORIENTED_EDGE('',*,*,#995,.T.);
#997=ORIENTED_EDGE('',*,*,#988,.T.);
#998=CARTESIAN_POINT('',(-27.47,18.187330554,144.629981169));
#999=DIRECTION('',(-0.,-1.,0.));
#1000=DIRECTION('',(0.,0.,1.));
#1001=AXIS2_PLACEMENT_3D('',#998,#999,#1000);
#1002=CIRCLE('',#1001,3.25);
#1003=EDGE_CURVE('NONE',#983,#983,#1002,.T.);
#1004=ORIENTED_EDGE('',*,*,#1003,.F.);
#1005=EDGE_LOOP('',(#989,#996,#997,#1004));
#1006=FACE_BOUND('',#1005,.T.);
#1007=ADVANCED_FACE('NONE',(#1006),#979,.F.);
#1008=CARTESIAN_POINT('',(-27.47,15.187330554,144.629981169));
#1009=DIRECTION('',(-0.,-1.,0.));
#1010=DIRECTION('',(0.,0.,1.));
#1011=AXIS2_PLACEMENT_3D('',#1008,#1009,#1010);
#1012=CYLINDRICAL_SURFACE('',#1011,1.6);
#1013=CARTESIAN_POINT('',(-27.47,18.187330554,146.229981169));
#1014=VERTEX_POINT('',#1013);
#1015=CARTESIAN_POINT('',(-27.47,20.187330554,146.229981169));
#1016=VERTEX_POINT('',#1015);
#1017=CARTESIAN_POINT('',(-27.47,18.187330554,146.229981169));
#1018=DIRECTION('',(0.,1.,-0.));
#1019=VECTOR('',#1018,2.);
#1020=LINE('',#1017,#1019);
#1021=EDGE_CURVE('',#1014,#1016,#1020,.T.);
#1022=ORIENTED_EDGE('',*,*,#1021,.F.);
#1023=CARTESIAN_POINT('',(-27.47,18.187330554,144.629981169));
#1024=DIRECTION('',(-0.,-1.,0.));
#1025=DIRECTION('',(0.,0.,1.));
#1026=AXIS2_PLACEMENT_3D('',#1023,#1024,#1025);
#1027=CIRCLE('',#1026,1.6);
#1028=EDGE_CURVE('NONE',#1014,#1014,#1027,.T.);
#1029=ORIENTED_EDGE('',*,*,#1028,.T.);
#1030=ORIENTED_EDGE('',*,*,#1021,.T.);
#1031=CARTESIAN_POINT('',(-27.47,20.187330554,144.629981169));
#1032=DIRECTION('',(-0.,-1.,0.));
#1033=DIRECTION('',(0.,0.,1.));
#1034=AXIS2_PLACEMENT_3D('',#1031,#1032,#1033);
#1035=CIRCLE('',#1034,1.6);
#1036=EDGE_CURVE('NONE',#1016,#1016,#1035,.T.);
#1037=ORIENTED_EDGE('',*,*,#1036,.F.);
#1038=EDGE_LOOP('',(#1022,#1029,#1030,#1037));
#1039=FACE_BOUND('',#1038,.T.);
#1040=ADVANCED_FACE('NONE',(#1039),#1012,.F.);
#1041=CARTESIAN_POINT('',(-13.97,15.187330554,121.247295267));
#1042=DIRECTION('',(-0.,-1.,0.));
#1043=DIRECTION('',(0.,0.,1.));
#1044=AXIS2_PLACEMENT_3D('',#1041,#1042,#1043);
#1045=CYLINDRICAL_SURFACE('',#1044,3.25);
#1046=CARTESIAN_POINT('',(-13.97,15.187330554,124.497295267));
#1047=VERTEX_POINT('',#1046);
#1048=CARTESIAN_POINT('',(-13.97,18.187330554,124.497295267));
#1049=VERTEX_POINT('',#1048);
#1050=CARTESIAN_POINT('',(-13.97,15.187330554,124.497295267));
#1051=DIRECTION('',(0.,1.,-0.));
#1052=VECTOR('',#1051,3.);
#1053=LINE('',#1050,#1052);
#1054=EDGE_CURVE('',#1047,#1049,#1053,.T.);
#1055=ORIENTED_EDGE('',*,*,#1054,.F.);
#1056=CARTESIAN_POINT('',(-13.97,15.187330554,121.247295267));
#1057=DIRECTION('',(-0.,-1.,0.));
#1058=DIRECTION('',(0.,0.,1.));
#1059=AXIS2_PLACEMENT_3D('',#1056,#1057,#1058);
#1060=CIRCLE('',#1059,3.25);
#1061=EDGE_CURVE('NONE',#1047,#1047,#1060,.T.);
#1062=ORIENTED_EDGE('',*,*,#1061,.T.);
#1063=ORIENTED_EDGE('',*,*,#1054,.T.);
#1064=CARTESIAN_POINT('',(-13.97,18.187330554,121.247295267));
#1065=DIRECTION('',(-0.,-1.,0.));
#1066=DIRECTION('',(0.,0.,1.));
#1067=AXIS2_PLACEMENT_3D('',#1064,#1065,#1066);
#1068=CIRCLE('',#1067,3.25);
#1069=EDGE_CURVE('NONE',#1049,#1049,#1068,.T.);
#1070=ORIENTED_EDGE('',*,*,#1069,.F.);
#1071=EDGE_LOOP('',(#1055,#1062,#1063,#1070));
#1072=FACE_BOUND('',#1071,.T.);
#1073=ADVANCED_FACE('NONE',(#1072),#1045,.F.);
#1074=CARTESIAN_POINT('',(-13.97,15.187330554,121.247295267));
#1075=DIRECTION('',(-0.,-1.,0.));
#1076=DIRECTION('',(0.,0.,1.));
#1077=AXIS2_PLACEMENT_3D('',#1074,#1075,#1076);
#1078=CYLINDRICAL_SURFACE('',#1077,1.6);
#1079=CARTESIAN_POINT('',(-13.97,18.187330554,122.847295267));
#1080=VERTEX_POINT('',#1079);
#1081=CARTESIAN_POINT('',(-13.97,20.187330554,122.847295267));
#1082=VERTEX_POINT('',#1081);
#1083=CARTESIAN_POINT('',(-13.97,18.187330554,122.847295267));
#1084=DIRECTION('',(0.,1.,-0.));
#1085=VECTOR('',#1084,2.);
#1086=LINE('',#1083,#1085);
#1087=EDGE_CURVE('',#1080,#1082,#1086,.T.);
#1088=ORIENTED_EDGE('',*,*,#1087,.F.);
#1089=CARTESIAN_POINT('',(-13.97,18.187330554,121.247295267));
#1090=DIRECTION('',(-0.,-1.,0.));
#1091=DIRECTION('',(0.,0.,1.));
#1092=AXIS2_PLACEMENT_3D('',#1089,#1090,#1091);
#1093=CIRCLE('',#1092,1.6);
#1094=EDGE_CURVE('NONE',#1080,#1080,#1093,.T.);
#1095=ORIENTED_EDGE('',*,*,#1094,.T.);
#1096=ORIENTED_EDGE('',*,*,#1087,.T.);
#1097=CARTESIAN_POINT('',(-13.97,20.187330554,121.247295267));
#1098=DIRECTION('',(-0.,-1.,0.));
#1099=DIRECTION('',(0.,0.,1.));
#1100=AXIS2_PLACEMENT_3D('',#1097,#1098,#1099);
#1101=CIRCLE('',#1100,1.6);
#1102=EDGE_CURVE('NONE',#1082,#1082,#1101,.T.);
#1103=ORIENTED_EDGE('',*,*,#1102,.F.);
#1104=EDGE_LOOP('',(#1088,#1095,#1096,#1103));
#1105=FACE_BOUND('',#1104,.T.);
#1106=ADVANCED_FACE('NONE',(#1105),#1078,.F.);
#1107=CARTESIAN_POINT('',(-20.72,9.687330554,132.938638218));
#1108=DIRECTION('',(0.,1.,-0.));
#1109=DIRECTION('',(-0.,-0.,-1.));
#1110=AXIS2_PLACEMENT_3D('',#1107,#1108,#1109);
#1111=CYLINDRICAL_SURFACE('',#1110,17.5);
#1112=CARTESIAN_POINT('',(-20.72,20.187330554,115.438638218));
#1113=VERTEX_POINT('',#1112);
#1114=CARTESIAN_POINT('',(-20.72,15.187330554,115.438638218));
#1115=VERTEX_POINT('',#1114);
#1116=CARTESIAN_POINT('',(-20.72,20.187330554,115.438638218));
#1117=DIRECTION('',(-0.,-1.,0.));
#1118=VECTOR('',#1117,5.);
#1119=LINE('',#1116,#1118);
#1120=EDGE_CURVE('',#1113,#1115,#1119,.T.);
#1121=ORIENTED_EDGE('',*,*,#1120,.T.);
#1122=CARTESIAN_POINT('',(-36.531388301,15.187330554,125.438638218));
#1123=VERTEX_POINT('',#1122);
#1124=CARTESIAN_POINT('',(-20.72,15.187330554,132.938638218));
#1125=DIRECTION('',(0.,1.,-0.));
#1126=DIRECTION('',(-0.,-0.,-1.));
#1127=AXIS2_PLACEMENT_3D('',#1124,#1125,#1126);
#1128=CIRCLE('',#1127,17.5);
#1129=EDGE_CURVE('NONE',#1115,#1123,#1128,.T.);
#1130=ORIENTED_EDGE('',*,*,#1129,.T.);
#1131=CARTESIAN_POINT('',(-20.72,7.687330554,132.938638218));
#1132=DIRECTION('',(0.,0.707106781,0.707106781));
#1133=DIRECTION('',(0.,0.707106781,-0.707106781));
#1134=AXIS2_PLACEMENT_3D('',#1131,#1132,#1133);
#1135=ELLIPSE('',#1134,24.748737342,17.5);
#1136=EDGE_CURVE('NONE',#1123,#275,#1135,.T.);
#1137=ORIENTED_EDGE('',*,*,#1136,.T.);
#1138=ORIENTED_EDGE('',*,*,#280,.F.);
#1139=CARTESIAN_POINT('',(-38.212855685,-9.890781829,132.438638218));
#1140=VERTEX_POINT('',#1139);
#1141=CARTESIAN_POINT('',(-20.72,-9.890781829,132.938638218));
#1142=DIRECTION('',(-0.,-1.,0.));
#1143=DIRECTION('',(-0.,-0.,-1.));
#1144=AXIS2_PLACEMENT_3D('',#1141,#1142,#1143);
#1145=CIRCLE('',#1144,17.5);
#1146=EDGE_CURVE('NONE',#1140,#267,#1145,.T.);
#1147=ORIENTED_EDGE('',*,*,#1146,.F.);
#1148=CARTESIAN_POINT('',(-38.212855685,-17.890781829,132.438638218));
#1149=VERTEX_POINT('',#1148);
#1150=CARTESIAN_POINT('',(-38.212855685,-17.890781829,132.438638218));
#1151=DIRECTION('',(0.,1.,-0.));
#1152=VECTOR('',#1151,8.);
#1153=LINE('',#1150,#1152);
#1154=EDGE_CURVE('NONE',#1149,#1140,#1153,.T.);
#1155=ORIENTED_EDGE('',*,*,#1154,.F.);
#1156=CARTESIAN_POINT('',(-20.72,-17.890781829,132.938638218));
#1157=DIRECTION('',(-0.,-1.,0.));
#1158=DIRECTION('',(-0.,-0.,-1.));
#1159=AXIS2_PLACEMENT_3D('',#1156,#1157,#1158);
#1160=CIRCLE('',#1159,17.5);
#1161=EDGE_CURVE('NONE',#513,#1149,#1160,.T.);
#1162=ORIENTED_EDGE('',*,*,#1161,.F.);
#1163=ORIENTED_EDGE('',*,*,#518,.T.);
#1164=CARTESIAN_POINT('',(-20.72,15.187330554,132.938638218));
#1165=DIRECTION('',(0.,1.,-0.));
#1166=DIRECTION('',(-0.,-0.,-1.));
#1167=AXIS2_PLACEMENT_3D('',#1164,#1165,#1166);
#1168=CIRCLE('',#1167,17.5);
#1169=EDGE_CURVE('NONE',#505,#497,#1168,.T.);
#1170=ORIENTED_EDGE('',*,*,#1169,.T.);
#1171=ORIENTED_EDGE('',*,*,#502,.F.);
#1172=CARTESIAN_POINT('',(-20.72,9.687330554,132.938638218));
#1173=DIRECTION('',(0.,1.,-0.));
#1174=DIRECTION('',(-0.,-0.,-1.));
#1175=AXIS2_PLACEMENT_3D('',#1172,#1173,#1174);
#1176=CIRCLE('',#1175,17.5);
#1177=EDGE_CURVE('NONE',#489,#308,#1176,.T.);
#1178=ORIENTED_EDGE('',*,*,#1177,.T.);
#1179=ORIENTED_EDGE('',*,*,#313,.T.);
#1180=CARTESIAN_POINT('',(-4.908611699,15.187330554,125.438638218));
#1181=VERTEX_POINT('',#1180);
#1182=CARTESIAN_POINT('',(-20.72,7.687330554,132.938638218));
#1183=DIRECTION('',(0.,0.707106781,0.707106781));
#1184=DIRECTION('',(0.,0.707106781,-0.707106781));
#1185=AXIS2_PLACEMENT_3D('',#1182,#1183,#1184);
#1186=ELLIPSE('',#1185,24.748737342,17.5);
#1187=EDGE_CURVE('NONE',#300,#1181,#1186,.T.);
#1188=ORIENTED_EDGE('',*,*,#1187,.T.);
#1189=CARTESIAN_POINT('',(-20.72,15.187330554,132.938638218));
#1190=DIRECTION('',(0.,1.,-0.));
#1191=DIRECTION('',(-0.,-0.,-1.));
#1192=AXIS2_PLACEMENT_3D('',#1189,#1190,#1191);
#1193=CIRCLE('',#1192,17.5);
#1194=EDGE_CURVE('NONE',#1181,#1115,#1193,.T.);
#1195=ORIENTED_EDGE('',*,*,#1194,.T.);
#1196=ORIENTED_EDGE('',*,*,#1120,.F.);
#1197=CARTESIAN_POINT('',(-20.72,20.187330554,132.938638218));
#1198=DIRECTION('',(0.,1.,-0.));
#1199=DIRECTION('',(-0.,-0.,-1.));
#1200=AXIS2_PLACEMENT_3D('',#1197,#1198,#1199);
#1201=CIRCLE('',#1200,17.5);
#1202=EDGE_CURVE('NONE',#1113,#1113,#1201,.T.);
#1203=ORIENTED_EDGE('',*,*,#1202,.F.);
#1204=EDGE_LOOP('',(#1121,#1130,#1137,#1138,#1147,#1155,#1162,#1163,#1170,#1171,#1178,#1179,#1188,#1195,#1196,#1203));
#1205=FACE_BOUND('',#1204,.T.);
#1206=ADVANCED_FACE('NONE',(#1205),#1111,.T.);
#1207=CARTESIAN_POINT('',(-23.22,10.109218171,150.438638218));
#1208=DIRECTION('',(-0.,-0.,-1.));
#1209=DIRECTION('',(-1.,0.,0.));
#1210=AXIS2_PLACEMENT_3D('',#1207,#1208,#1209);
#1211=CYLINDRICAL_SURFACE('',#1210,1.6);
#1212=CARTESIAN_POINT('',(-24.82,10.109218171,130.438638218));
#1213=DIRECTION('',(0.,0.,1.));
#1214=VECTOR('',#1213,5.);
#1215=LINE('',#1212,#1214);
#1216=EDGE_CURVE('',#221,#440,#1215,.T.);
#1217=ORIENTED_EDGE('',*,*,#1216,.F.);
#1218=ORIENTED_EDGE('',*,*,#227,.T.);
#1219=ORIENTED_EDGE('',*,*,#1216,.T.);
#1220=ORIENTED_EDGE('',*,*,#446,.T.);
#1221=EDGE_LOOP('',(#1217,#1218,#1219,#1220));
#1222=FACE_BOUND('',#1221,.T.);
#1223=ADVANCED_FACE('NONE',(#1222),#1211,.F.);
#1224=CARTESIAN_POINT('',(-20.72,15.187330554,125.438638218));
#1225=DIRECTION('',(0.,0.707106781,0.707106781));
#1226=DIRECTION('',(-1.,0.,0.));
#1227=AXIS2_PLACEMENT_3D('',#1224,#1225,#1226);
#1228=PLANE('',#1227);
#1229=CARTESIAN_POINT('',(-26.319015723,10.187330554,130.438638218));
#1230=CARTESIAN_POINT('',(-26.170333417,16.086123878,124.539844894));
#1231=CARTESIAN_POINT('',(-20.269666582,16.086123878,124.539844894));
#1232=CARTESIAN_POINT('',(-20.120984276,10.187330554,130.438638218));
#1233=(BOUNDED_CURVE()
B_SPLINE_CURVE(3,(#1229,#1230,#1231,#1232),.UNSPECIFIED.,.F.,.F.)
B_SPLINE_CURVE_WITH_KNOTS((4,4),(1.595996537,4.68718877),.UNSPECIFIED.)
CURVE()
GEOMETRIC_REPRESENTATION_ITEM()
RATIONAL_B_SPLINE_CURVE((1.,0.350131695,0.350131695,1.))
REPRESENTATION_ITEM(''));
#1234=EDGE_CURVE('NONE',#283,#291,#1233,.T.);
#1235=ORIENTED_EDGE('',*,*,#1234,.F.);
#1236=ORIENTED_EDGE('',*,*,#288,.F.);
#1237=ORIENTED_EDGE('',*,*,#1136,.F.);
#1238=CARTESIAN_POINT('',(-4.908611699,15.187330554,125.438638218));
#1239=DIRECTION('',(-1.,0.,0.));
#1240=VECTOR('',#1239,31.622776602);
#1241=LINE('',#1238,#1240);
#1242=EDGE_CURVE('NONE',#1181,#1123,#1241,.T.);
#1243=ORIENTED_EDGE('',*,*,#1242,.F.);
#1244=ORIENTED_EDGE('',*,*,#1187,.F.);
#1245=ORIENTED_EDGE('',*,*,#305,.F.);
#1246=EDGE_LOOP('',(#1235,#1236,#1237,#1243,#1244,#1245));
#1247=FACE_BOUND('',#1246,.T.);
#1248=ADVANCED_FACE('NONE',(#1247),#1228,.F.);
#1249=CARTESIAN_POINT('',(-20.72,9.687330554,135.438638218));
#1250=DIRECTION('',(0.,1.,-0.));
#1251=DIRECTION('',(-0.,-0.,-1.));
#1252=AXIS2_PLACEMENT_3D('',#1249,#1250,#1251);
#1253=PLANE('',#1252);
#1254=ORIENTED_EDGE('',*,*,#1177,.F.);
#1255=ORIENTED_EDGE('',*,*,#494,.F.);
#1256=ORIENTED_EDGE('',*,*,#553,.F.);
#1257=ORIENTED_EDGE('',*,*,#319,.F.);
#1258=EDGE_LOOP('',(#1254,#1255,#1256,#1257));
#1259=FACE_BOUND('',#1258,.T.);
#1260=ADVANCED_FACE('NONE',(#1259),#1253,.T.);
#1261=CARTESIAN_POINT('',(-63.22,17.687330554,135.438638218));
#1262=DIRECTION('',(1.,-0.,-0.));
#1263=DIRECTION('',(-0.,-0.,-1.));
#1264=AXIS2_PLACEMENT_3D('',#1261,#1262,#1263);
#1265=PLANE('',#1264);
#1266=ORIENTED_EDGE('',*,*,#532,.T.);
#1267=CARTESIAN_POINT('',(-63.22,-17.890781829,132.438638218));
#1268=VERTEX_POINT('',#1267);
#1269=CARTESIAN_POINT('',(-63.22,-17.890781829,132.438638218));
#1270=DIRECTION('',(0.,0.,1.));
#1271=VECTOR('',#1270,3.);
#1272=LINE('',#1269,#1271);
#1273=EDGE_CURVE('NONE',#1268,#521,#1272,.T.);
#1274=ORIENTED_EDGE('',*,*,#1273,.F.);
#1275=CARTESIAN_POINT('',(-63.22,-9.890781829,132.438638218));
#1276=VERTEX_POINT('',#1275);
#1277=CARTESIAN_POINT('',(-63.22,-9.890781829,132.438638218));
#1278=DIRECTION('',(-0.,-1.,0.));
#1279=VECTOR('',#1278,8.);
#1280=LINE('',#1277,#1279);
#1281=EDGE_CURVE('NONE',#1276,#1268,#1280,.T.);
#1282=ORIENTED_EDGE('',*,*,#1281,.F.);
#1283=CARTESIAN_POINT('',(-63.22,-9.890781829,132.438638218));
#1284=DIRECTION('',(-0.,-0.,-1.));
#1285=VECTOR('',#1284,2.);
#1286=LINE('',#1283,#1285);
#1287=EDGE_CURVE('NONE',#1276,#259,#1286,.T.);
#1288=ORIENTED_EDGE('',*,*,#1287,.T.);
#1289=ORIENTED_EDGE('',*,*,#264,.T.);
#1290=ORIENTED_EDGE('',*,*,#576,.F.);
#1291=EDGE_LOOP('',(#1266,#1274,#1282,#1288,#1289,#1290));
#1292=FACE_BOUND('',#1291,.T.);
#1293=ADVANCED_FACE('NONE',(#1292),#1265,.F.);
#1294=CARTESIAN_POINT('',(-20.72,15.187330554,132.938638218));
#1295=DIRECTION('',(0.,1.,-0.));
#1296=DIRECTION('',(-0.,-0.,-1.));
#1297=AXIS2_PLACEMENT_3D('',#1294,#1295,#1296);
#1298=PLANE('',#1297);
#1299=ORIENTED_EDGE('',*,*,#929,.F.);
#1300=EDGE_LOOP('',(#1299));
#1301=FACE_BOUND('',#1300,.T.);
#1302=ORIENTED_EDGE('',*,*,#1061,.F.);
#1303=EDGE_LOOP('',(#1302));
#1304=FACE_BOUND('',#1303,.T.);
#1305=ORIENTED_EDGE('',*,*,#1129,.F.);
#1306=ORIENTED_EDGE('',*,*,#1194,.F.);
#1307=ORIENTED_EDGE('',*,*,#1242,.T.);
#1308=EDGE_LOOP('',(#1305,#1306,#1307));
#1309=FACE_BOUND('',#1308,.T.);
#1310=ADVANCED_FACE('NONE',(#1301,#1304,#1309),#1298,.F.);
#1311=CARTESIAN_POINT('',(-20.72,15.187330554,132.938638218));
#1312=DIRECTION('',(0.,1.,-0.));
#1313=DIRECTION('',(-0.,-0.,-1.));
#1314=AXIS2_PLACEMENT_3D('',#1311,#1312,#1313);
#1315=PLANE('',#1314);
#1316=ORIENTED_EDGE('',*,*,#863,.F.);
#1317=EDGE_LOOP('',(#1316));
#1318=FACE_BOUND('',#1317,.T.);
#1319=ORIENTED_EDGE('',*,*,#995,.F.);
#1320=EDGE_LOOP('',(#1319));
#1321=FACE_BOUND('',#1320,.T.);
#1322=ORIENTED_EDGE('',*,*,#1169,.F.);
#1323=ORIENTED_EDGE('',*,*,#510,.T.);
#1324=EDGE_LOOP('',(#1322,#1323));
#1325=FACE_BOUND('',#1324,.T.);
#1326=ADVANCED_FACE('NONE',(#1318,#1321,#1325),#1315,.F.);
#1327=CARTESIAN_POINT('',(-20.72,20.187330554,132.938638218));
#1328=DIRECTION('',(0.,1.,-0.));
#1329=DIRECTION('',(-0.,-0.,-1.));
#1330=AXIS2_PLACEMENT_3D('',#1327,#1328,#1329);
#1331=PLANE('',#1330);
#1332=ORIENTED_EDGE('',*,*,#904,.T.);
#1333=EDGE_LOOP('',(#1332));
#1334=FACE_BOUND('',#1333,.T.);
#1335=ORIENTED_EDGE('',*,*,#970,.T.);
#1336=EDGE_LOOP('',(#1335));
#1337=FACE_BOUND('',#1336,.T.);
#1338=ORIENTED_EDGE('',*,*,#1036,.T.);
#1339=EDGE_LOOP('',(#1338));
#1340=FACE_BOUND('',#1339,.T.);
#1341=ORIENTED_EDGE('',*,*,#1102,.T.);
#1342=EDGE_LOOP('',(#1341));
#1343=FACE_BOUND('',#1342,.T.);
#1344=ORIENTED_EDGE('',*,*,#1202,.T.);
#1345=EDGE_LOOP('',(#1344));
#1346=FACE_BOUND('',#1345,.T.);
#1347=ADVANCED_FACE('NONE',(#1334,#1337,#1340,#1343,#1346),#1331,.T.);
#1348=CARTESIAN_POINT('',(-15.57,18.187330554,121.247295267));
#1349=DIRECTION('',(0.,1.,-0.));
#1350=DIRECTION('',(-0.,-0.,-1.));
#1351=AXIS2_PLACEMENT_3D('',#1348,#1349,#1350);
#1352=PLANE('',#1351);
#1353=ORIENTED_EDGE('',*,*,#1094,.F.);
#1354=EDGE_LOOP('',(#1353));
#1355=FACE_BOUND('',#1354,.T.);
#1356=ORIENTED_EDGE('',*,*,#1069,.T.);
#1357=EDGE_LOOP('',(#1356));
#1358=FACE_BOUND('',#1357,.T.);
#1359=ADVANCED_FACE('NONE',(#1355,#1358),#1352,.F.);
#1360=CARTESIAN_POINT('',(-29.07,18.187330554,144.629981169));
#1361=DIRECTION('',(0.,1.,-0.));
#1362=DIRECTION('',(-0.,-0.,-1.));
#1363=AXIS2_PLACEMENT_3D('',#1360,#1361,#1362);
#1364=PLANE('',#1363);
#1365=ORIENTED_EDGE('',*,*,#1028,.F.);
#1366=EDGE_LOOP('',(#1365));
#1367=FACE_BOUND('',#1366,.T.);
#1368=ORIENTED_EDGE('',*,*,#1003,.T.);
#1369=EDGE_LOOP('',(#1368));
#1370=FACE_BOUND('',#1369,.T.);
#1371=ADVANCED_FACE('NONE',(#1367,#1370),#1364,.F.);
#1372=CARTESIAN_POINT('',(-29.07,18.187330554,121.247295267));
#1373=DIRECTION('',(0.,1.,-0.));
#1374=DIRECTION('',(-0.,-0.,-1.));
#1375=AXIS2_PLACEMENT_3D('',#1372,#1373,#1374);
#1376=PLANE('',#1375);
#1377=ORIENTED_EDGE('',*,*,#962,.F.);
#1378=EDGE_LOOP('',(#1377));
#1379=FACE_BOUND('',#1378,.T.);
#1380=ORIENTED_EDGE('',*,*,#937,.T.);
#1381=EDGE_LOOP('',(#1380));
#1382=FACE_BOUND('',#1381,.T.);
#1383=ADVANCED_FACE('NONE',(#1379,#1382),#1376,.F.);
#1384=CARTESIAN_POINT('',(-15.57,18.187330554,144.629981169));
#1385=DIRECTION('',(0.,1.,-0.));
#1386=DIRECTION('',(-0.,-0.,-1.));
#1387=AXIS2_PLACEMENT_3D('',#1384,#1385,#1386);
#1388=PLANE('',#1387);
#1389=ORIENTED_EDGE('',*,*,#896,.F.);
#1390=EDGE_LOOP('',(#1389));
#1391=FACE_BOUND('',#1390,.T.);
#1392=ORIENTED_EDGE('',*,*,#871,.T.);
#1393=EDGE_LOOP('',(#1392));
#1394=FACE_BOUND('',#1393,.T.);
#1395=ADVANCED_FACE('NONE',(#1391,#1394),#1388,.F.);
#1396=CARTESIAN_POINT('',(-23.22,10.109218171,-869.561361782));
#1397=DIRECTION('',(0.,0.,1.));
#1398=DIRECTION('',(1.,-0.,-0.));
#1399=AXIS2_PLACEMENT_3D('',#1396,#1397,#1398);
#1400=CYLINDRICAL_SURFACE('',#1399,3.1);
#1401=ORIENTED_EDGE('',*,*,#1234,.T.);
#1402=ORIENTED_EDGE('',*,*,#297,.F.);
#1403=EDGE_LOOP('',(#1401,#1402));
#1404=FACE_BOUND('',#1403,.T.);
#1405=ADVANCED_FACE('NONE',(#1404),#1400,.F.);
#1406=CARTESIAN_POINT('',(18.475649277,-9.890781829,132.438638218));
#1407=DIRECTION('',(-0.,-0.,-1.));
#1408=DIRECTION('',(-0.,-1.,0.));
#1409=AXIS2_PLACEMENT_3D('',#1406,#1407,#1408);
#1410=PLANE('',#1409);
#1411=CARTESIAN_POINT('',(-38.212855685,-17.890781829,132.438638218));
#1412=DIRECTION('',(-1.,0.,0.));
#1413=VECTOR('',#1412,25.007144315);
#1414=LINE('',#1411,#1413);
#1415=EDGE_CURVE('NONE',#1149,#1268,#1414,.T.);
#1416=ORIENTED_EDGE('',*,*,#1415,.F.);
#1417=ORIENTED_EDGE('',*,*,#1154,.T.);
#1418=CARTESIAN_POINT('',(-38.212855685,-9.890781829,132.438638218));
#1419=DIRECTION('',(-1.,0.,0.));
#1420=VECTOR('',#1419,25.007144315);
#1421=LINE('',#1418,#1420);
#1422=EDGE_CURVE('NONE',#1140,#1276,#1421,.T.);
#1423=ORIENTED_EDGE('',*,*,#1422,.T.);
#1424=ORIENTED_EDGE('',*,*,#1281,.T.);
#1425=EDGE_LOOP('',(#1416,#1417,#1423,#1424));
#1426=FACE_BOUND('',#1425,.T.);
#1427=ORIENTED_EDGE('',*,*,#652,.F.);
#1428=EDGE_LOOP('',(#1427));
#1429=FACE_BOUND('',#1428,.T.);
#1430=ADVANCED_FACE('NONE',(#1426,#1429),#1410,.F.);
#1431=CARTESIAN_POINT('',(18.475649277,-17.890781829,132.438638218));
#1432=DIRECTION('',(-0.,-1.,0.));
#1433=DIRECTION('',(0.,0.,1.));
#1434=AXIS2_PLACEMENT_3D('',#1431,#1432,#1433);
#1435=PLANE('',#1434);
#1436=ORIENTED_EDGE('',*,*,#526,.T.);
#1437=ORIENTED_EDGE('',*,*,#1161,.T.);
#1438=ORIENTED_EDGE('',*,*,#1415,.T.);
#1439=ORIENTED_EDGE('',*,*,#1273,.T.);
#1440=EDGE_LOOP('',(#1436,#1437,#1438,#1439));
#1441=FACE_BOUND('',#1440,.T.);
#1442=ADVANCED_FACE('NONE',(#1441),#1435,.F.);
#1443=CARTESIAN_POINT('',(18.475649277,-9.890781829,129.688638218));
#1444=DIRECTION('',(-0.,-1.,0.));
#1445=DIRECTION('',(0.,0.,1.));
#1446=AXIS2_PLACEMENT_3D('',#1443,#1444,#1445);
#1447=PLANE('',#1446);
#1448=ORIENTED_EDGE('',*,*,#272,.T.);
#1449=ORIENTED_EDGE('',*,*,#1287,.F.);
#1450=ORIENTED_EDGE('',*,*,#1422,.F.);
#1451=ORIENTED_EDGE('',*,*,#1146,.T.);
#1452=EDGE_LOOP('',(#1448,#1449,#1450,#1451));
#1453=FACE_BOUND('',#1452,.T.);
#1454=ADVANCED_FACE('NONE',(#1453),#1447,.F.);
#1455=CARTESIAN_POINT('',(-20.72,0.109218171,69.938638218));
#1456=DIRECTION('',(0.,0.,1.));
#1457=DIRECTION('',(1.,0.,-0.));
#1458=AXIS2_PLACEMENT_3D('',#1455,#1456,#1457);
#1459=CYLINDRICAL_SURFACE('',#1458,75.);
#1460=ORIENTED_EDGE('',*,*,#546,.T.);
#1461=ORIENTED_EDGE('',*,*,#478,.F.);
#1462=ORIENTED_EDGE('',*,*,#569,.F.);
#1463=ORIENTED_EDGE('',*,*,#248,.F.);
#1464=EDGE_LOOP('',(#1460,#1461,#1462,#1463));
#1465=FACE_BOUND('',#1464,.T.);
#1466=ADVANCED_FACE('',(#1465),#1459,.T.);
#1467=CLOSED_SHELL('',(#323,#536,#558,#580,#597,#614,#631,#656,#673,#690,#707,#724,#741,#758,#783,#808,#825,#842,#875,#908,#941,#974,#1007,#1040,#1073,#1106,
#1206,#1223,#1248,#1260,#1293,#1310,#1326,#1347,#1359,#1371,#1383,#1395,#1405,#1430,#1442,#1454,#1466));
#1468=MANIFOLD_SOLID_BREP('\X2\52079664\X0\-\X2\62C94F38\X0\8',#1467);
#1469=COLOUR_RGB('',0.792156875,0.819607854,0.933333337);
#1470=FILL_AREA_STYLE_COLOUR('',#1469);
#1471=FILL_AREA_STYLE('',(#1470));
#1472=SURFACE_STYLE_FILL_AREA(#1471);
#1473=SURFACE_SIDE_STYLE('',(#1472));
#1474=SURFACE_STYLE_USAGE(.BOTH.,#1473);
#1475=PRESENTATION_STYLE_ASSIGNMENT((#1474));
#82=STYLED_ITEM('',(#1475),#1468);
#63=SHAPE_REPRESENTATION('p\X2\4E9153F0\X0\new',(#15),#61);
#64=ADVANCED_BREP_SHAPE_REPRESENTATION('p\X2\4E9153F0\X0\new',(#1468),#61);
#1483=SHAPE_REPRESENTATION_RELATIONSHIP('','',#63,#64);
#1484=APPLICATION_CONTEXT('data for automotive mechanical design processes');
#1485=APPLICATION_PROTOCOL_DEFINITION('international standard','automotive_design',1994,#1484);
#1486=PRODUCT_CONTEXT('',#1484,'mechanical');
#1487=PRODUCT_DEFINITION_CONTEXT('part definition',#1484,'design');
#71=PRODUCT('p\X2\4E9153F0\X0\new','p\X2\4E9153F0\X0\new','',(#1486));
#1488=PRODUCT_RELATED_PRODUCT_CATEGORY('part','',(#71));
#1489=PRODUCT_DEFINITION_FORMATION_WITH_SPECIFIED_SOURCE('','',#71,.NOT_KNOWN.);
#72=PRODUCT_DEFINITION('design','',#1489,#1487);
#70=PRODUCT_DEFINITION_SHAPE('','',#72);
#1490=SHAPE_DEFINITION_REPRESENTATION(#70,#63);
#62=DRAUGHTING_MODEL('',(),#61);
#35=SHAPE_REPRESENTATION('\X2\4E9153F0603B88C5\X0\.STEP',(#15,#76),#33);
#43=PRODUCT('\X2\4E9153F0603B88C5\X0\.STEP','\X2\4E9153F0603B88C5\X0\.STEP','',(#1486));
#1491=PRODUCT_RELATED_PRODUCT_CATEGORY('part','',(#43));
#1492=PRODUCT_DEFINITION_FORMATION_WITH_SPECIFIED_SOURCE('','',#43,.NOT_KNOWN.);
#44=PRODUCT_DEFINITION('design','',#1492,#1487);
#42=PRODUCT_DEFINITION_SHAPE('','',#44);
#1493=SHAPE_DEFINITION_REPRESENTATION(#42,#35);
#34=DRAUGHTING_MODEL('',(),#33);
#16=SHAPE_REPRESENTATION('root',(#15,#48),#10);
#24=PRODUCT('root','root','',(#1486));
#1494=PRODUCT_RELATED_PRODUCT_CATEGORY('part','',(#24));
#1495=PRODUCT_DEFINITION_FORMATION_WITH_SPECIFIED_SOURCE('','',#24,.NOT_KNOWN.);
#25=PRODUCT_DEFINITION('design','',#1495,#1487);
#23=PRODUCT_DEFINITION_SHAPE('','',#25);
#1496=SHAPE_DEFINITION_REPRESENTATION(#23,#16);
#11=DRAUGHTING_MODEL('',(),#10);
#1=MECHANICAL_DESIGN_GEOMETRIC_PRESENTATION_REPRESENTATION('',(#82),#10);
ENDSEC;
END-ISO-10303-21;
