ISO-10303-21;
HEADER;

/* File generated by Shapr3D Version 5.930.9346.0 */

FILE_DESCRIPTION(('HOOPS Exchange Step'),'2;1');

FILE_NAME('C:\\Users\\ggllxx\\AppData\\Local\\Packages\\Shapr3D.Shapr3D_j403pzjkqtqbj\\TempState\\export\\temp_export',
'2025-09-09T03:42:29-16:00',
('ggllxx'),
('Shapr3D Limited'),
'HOOPS Exchange 2025.5',
'Shapr3D',
'Authorized');

FILE_SCHEMA( ('AUTOMOTIVE_DESIGN { 1 0 10303 214 1 1 1 1 }') );

ENDSEC;

DATA;
#3=(NAMED_UNIT(*)PLANE_ANGLE_UNIT()SI_UNIT($,.RADIAN.));
#4=PLANE_ANGLE_MEASURE_WITH_UNIT(PLANE_ANGLE_MEASURE(0.0174532925),#3);
#5=(CONVERSION_BASED_UNIT('DEGREE',#4)NAMED_UNIT(#6)PLANE_ANGLE_UNIT());
#6=DIMENSIONAL_EXPONENTS(0.,0.,0.,0.,0.,0.,0.);
#7=(NAMED_UNIT(*)SI_UNIT($,.STERADIAN.)SOLID_ANGLE_UNIT());
#8=(LENGTH_UNIT()NAMED_UNIT(*)SI_UNIT(.MILLI.,.METRE.));
#9=UNCERTAINTY_MEASURE_WITH_UNIT(LENGTH_MEASURE(1.000000E-05),#8,'DISTANCE_ACCURACY_VALUE','Maximum Tolerance applied to model');
#10=(GEOMETRIC_REPRESENTATION_CONTEXT(3)GLOBAL_UNCERTAINTY_ASSIGNED_CONTEXT((#9))GLOBAL_UNIT_ASSIGNED_CONTEXT((#8,#5,#7))REPRESENTATION_CONTEXT('','root'));
#12=CARTESIAN_POINT('',(0.,0.,0.));
#13=DIRECTION('',(0.,0.,1.));
#14=DIRECTION('',(1.,0.,0.));
#15=AXIS2_PLACEMENT_3D('',#12,#13,#14);
#27=CARTESIAN_POINT('',(-131.324815761,-25.150036095,-5.656548056));
#28=DIRECTION('',(0.,1.,0.));
#29=DIRECTION('',(0.,0.,1.));
#30=AXIS2_PLACEMENT_3D('',#27,#28,#29);
#31=PLANE('',#30);
#32=CARTESIAN_POINT('',(-108.324815761,-25.150036095,-24.573592453));
#33=VERTEX_POINT('',#32);
#34=CARTESIAN_POINT('',(-108.324815761,-25.150036095,-44.313096112));
#35=VERTEX_POINT('',#34);
#36=CARTESIAN_POINT('',(-108.324815761,-25.150036095,-24.573592453));
#37=DIRECTION('',(0.,0.,-1.));
#38=VECTOR('',#37,19.739503659);
#39=LINE('',#36,#38);
#40=EDGE_CURVE('',#33,#35,#39,.T.);
#41=ORIENTED_EDGE('',*,*,#40,.T.);
#42=CARTESIAN_POINT('',(-133.824815761,-25.150036095,-44.313096112));
#43=VERTEX_POINT('',#42);
#44=CARTESIAN_POINT('',(-133.824815761,-25.150036095,-44.313096112));
#45=DIRECTION('',(1.,0.,-0.));
#46=VECTOR('',#45,25.5);
#47=LINE('',#44,#46);
#48=EDGE_CURVE('',#43,#35,#47,.T.);
#49=ORIENTED_EDGE('',*,*,#48,.F.);
#50=CARTESIAN_POINT('',(-133.824815761,-25.150036095,-47.313096112));
#51=VERTEX_POINT('',#50);
#52=CARTESIAN_POINT('',(-133.824815761,-25.150036095,-44.313096112));
#53=DIRECTION('',(0.,0.,-1.));
#54=VECTOR('',#53,3.);
#55=LINE('',#52,#54);
#56=EDGE_CURVE('',#43,#51,#55,.T.);
#57=ORIENTED_EDGE('',*,*,#56,.T.);
#58=CARTESIAN_POINT('',(-105.324815761,-25.150036095,-47.313096112));
#59=VERTEX_POINT('',#58);
#60=CARTESIAN_POINT('',(-133.824815761,-25.150036095,-47.313096112));
#61=DIRECTION('',(1.,0.,-0.));
#62=VECTOR('',#61,28.5);
#63=LINE('',#60,#62);
#64=EDGE_CURVE('',#51,#59,#63,.T.);
#65=ORIENTED_EDGE('',*,*,#64,.T.);
#66=CARTESIAN_POINT('',(-105.324815761,-25.150036095,-5.));
#67=VERTEX_POINT('',#66);
#68=CARTESIAN_POINT('',(-105.324815761,-25.150036095,-47.313096112));
#69=DIRECTION('',(0.,0.,1.));
#70=VECTOR('',#69,42.313096112);
#71=LINE('',#68,#70);
#72=EDGE_CURVE('',#59,#67,#71,.T.);
#73=ORIENTED_EDGE('',*,*,#72,.T.);
#74=CARTESIAN_POINT('',(-131.324815761,-25.150036095,-5.));
#75=VERTEX_POINT('',#74);
#76=CARTESIAN_POINT('',(-131.324815761,-25.150036095,-5.));
#77=DIRECTION('',(1.,0.,-0.));
#78=VECTOR('',#77,26.);
#79=LINE('',#76,#78);
#80=EDGE_CURVE('',#75,#67,#79,.T.);
#81=ORIENTED_EDGE('',*,*,#80,.F.);
#82=CARTESIAN_POINT('',(-131.324815761,-25.150036095,-8.));
#83=VERTEX_POINT('',#82);
#84=CARTESIAN_POINT('',(-131.324815761,-25.150036095,-8.));
#85=DIRECTION('',(0.,0.,1.));
#86=VECTOR('',#85,3.);
#87=LINE('',#84,#86);
#88=EDGE_CURVE('',#83,#75,#87,.T.);
#89=ORIENTED_EDGE('',*,*,#88,.F.);
#90=CARTESIAN_POINT('',(-118.683311044,-25.150036095,-8.));
#91=VERTEX_POINT('',#90);
#92=CARTESIAN_POINT('',(-131.324815761,-25.150036095,-8.));
#93=DIRECTION('',(1.,0.,-0.));
#94=VECTOR('',#93,12.641504717);
#95=LINE('',#92,#94);
#96=EDGE_CURVE('',#83,#91,#95,.T.);
#97=ORIENTED_EDGE('',*,*,#96,.T.);
#98=CARTESIAN_POINT('',(-108.324815761,-25.150036095,-24.573592453));
#99=DIRECTION('',(-0.52999894,-0.,0.847998304));
#100=VECTOR('',#99,19.544369811);
#101=LINE('',#98,#100);
#102=EDGE_CURVE('',#33,#91,#101,.T.);
#103=ORIENTED_EDGE('',*,*,#102,.F.);
#104=EDGE_LOOP('',(#41,#49,#57,#65,#73,#81,#89,#97,#103));
#105=FACE_BOUND('',#104,.T.);
#106=ADVANCED_FACE('',(#105),#31,.F.);
#107=CARTESIAN_POINT('',(-131.324815761,0.149963905,-8.));
#108=DIRECTION('',(0.,0.,1.));
#109=DIRECTION('',(1.,0.,0.));
#110=AXIS2_PLACEMENT_3D('',#107,#108,#109);
#111=PLANE('',#110);
#112=CARTESIAN_POINT('',(-122.924815761,4.999963905,-8.));
#113=VERTEX_POINT('',#112);
#114=CARTESIAN_POINT('',(-121.324815761,4.999963905,-8.));
#115=DIRECTION('',(0.,0.,-1.));
#116=DIRECTION('',(-1.,0.,0.));
#117=AXIS2_PLACEMENT_3D('',#114,#115,#116);
#118=CIRCLE('',#117,1.6);
#119=EDGE_CURVE('',#113,#113,#118,.T.);
#120=ORIENTED_EDGE('',*,*,#119,.F.);
#121=EDGE_LOOP('',(#120));
#122=FACE_BOUND('',#121,.T.);
#123=CARTESIAN_POINT('',(-122.924815761,-15.000036095,-8.));
#124=VERTEX_POINT('',#123);
#125=CARTESIAN_POINT('',(-121.324815761,-15.000036095,-8.));
#126=DIRECTION('',(0.,0.,-1.));
#127=DIRECTION('',(-1.,0.,0.));
#128=AXIS2_PLACEMENT_3D('',#125,#126,#127);
#129=CIRCLE('',#128,1.6);
#130=EDGE_CURVE('',#124,#124,#129,.T.);
#131=ORIENTED_EDGE('',*,*,#130,.F.);
#132=EDGE_LOOP('',(#131));
#133=FACE_BOUND('',#132,.T.);
#134=CARTESIAN_POINT('',(-122.924815761,-5.000036095,-8.));
#135=VERTEX_POINT('',#134);
#136=CARTESIAN_POINT('',(-121.324815761,-5.000036095,-8.));
#137=DIRECTION('',(0.,0.,-1.));
#138=DIRECTION('',(-1.,0.,0.));
#139=AXIS2_PLACEMENT_3D('',#136,#137,#138);
#140=CIRCLE('',#139,1.6);
#141=EDGE_CURVE('',#135,#135,#140,.T.);
#142=ORIENTED_EDGE('',*,*,#141,.F.);
#143=EDGE_LOOP('',(#142));
#144=FACE_BOUND('',#143,.T.);
#145=CARTESIAN_POINT('',(-122.924815761,14.999963905,-8.));
#146=VERTEX_POINT('',#145);
#147=CARTESIAN_POINT('',(-121.324815761,14.999963905,-8.));
#148=DIRECTION('',(0.,0.,-1.));
#149=DIRECTION('',(-1.,0.,0.));
#150=AXIS2_PLACEMENT_3D('',#147,#148,#149);
#151=CIRCLE('',#150,1.6);
#152=EDGE_CURVE('',#146,#146,#151,.T.);
#153=ORIENTED_EDGE('',*,*,#152,.F.);
#154=EDGE_LOOP('',(#153));
#155=FACE_BOUND('',#154,.T.);
#156=CARTESIAN_POINT('',(-118.683311044,11.999963905,-8.));
#157=VERTEX_POINT('',#156);
#158=CARTESIAN_POINT('',(-118.683311044,8.999963905,-8.));
#159=VERTEX_POINT('',#158);
#160=CARTESIAN_POINT('',(-118.683311044,11.999963905,-8.));
#161=DIRECTION('',(0.,-1.,0.));
#162=VECTOR('',#161,3.);
#163=LINE('',#160,#162);
#164=EDGE_CURVE('',#157,#159,#163,.T.);
#165=ORIENTED_EDGE('',*,*,#164,.T.);
#166=CARTESIAN_POINT('',(-108.324815761,8.999963905,-8.));
#167=VERTEX_POINT('',#166);
#168=CARTESIAN_POINT('',(-118.683311044,8.999963905,-8.));
#169=DIRECTION('',(1.,0.,-0.));
#170=VECTOR('',#169,10.358495283);
#171=LINE('',#168,#170);
#172=EDGE_CURVE('',#159,#167,#171,.T.);
#173=ORIENTED_EDGE('',*,*,#172,.T.);
#174=CARTESIAN_POINT('',(-108.324815761,-8.5,-8.));
#175=VERTEX_POINT('',#174);
#176=CARTESIAN_POINT('',(-108.324815761,-8.5,-8.));
#177=DIRECTION('',(0.,1.,0.));
#178=VECTOR('',#177,17.499963905);
#179=LINE('',#176,#178);
#180=EDGE_CURVE('',#175,#167,#179,.T.);
#181=ORIENTED_EDGE('',*,*,#180,.F.);
#182=CARTESIAN_POINT('',(-118.683311044,-8.5,-8.));
#183=VERTEX_POINT('',#182);
#184=CARTESIAN_POINT('',(-108.324815761,-8.5,-8.));
#185=DIRECTION('',(-1.,0.,0.));
#186=VECTOR('',#185,10.358495283);
#187=LINE('',#184,#186);
#188=EDGE_CURVE('',#175,#183,#187,.T.);
#189=ORIENTED_EDGE('',*,*,#188,.T.);
#190=CARTESIAN_POINT('',(-118.683311044,-11.5,-8.));
#191=VERTEX_POINT('',#190);
#192=CARTESIAN_POINT('',(-118.683311044,-8.5,-8.));
#193=DIRECTION('',(-0.,-1.,-0.));
#194=VECTOR('',#193,3.);
#195=LINE('',#192,#194);
#196=EDGE_CURVE('',#183,#191,#195,.T.);
#197=ORIENTED_EDGE('',*,*,#196,.T.);
#198=CARTESIAN_POINT('',(-108.324815761,-11.5,-8.));
#199=VERTEX_POINT('',#198);
#200=CARTESIAN_POINT('',(-118.683311044,-11.5,-8.));
#201=DIRECTION('',(1.,0.,-0.));
#202=VECTOR('',#201,10.358495283);
#203=LINE('',#200,#202);
#204=EDGE_CURVE('',#191,#199,#203,.T.);
#205=ORIENTED_EDGE('',*,*,#204,.T.);
#206=CARTESIAN_POINT('',(-108.324815761,-22.150036095,-8.));
#207=VERTEX_POINT('',#206);
#208=CARTESIAN_POINT('',(-108.324815761,-22.150036095,-8.));
#209=DIRECTION('',(0.,1.,0.));
#210=VECTOR('',#209,10.650036095);
#211=LINE('',#208,#210);
#212=EDGE_CURVE('',#207,#199,#211,.T.);
#213=ORIENTED_EDGE('',*,*,#212,.F.);
#214=CARTESIAN_POINT('',(-118.683311044,-22.150036095,-8.));
#215=VERTEX_POINT('',#214);
#216=CARTESIAN_POINT('',(-108.324815761,-22.150036095,-8.));
#217=DIRECTION('',(-1.,0.,0.));
#218=VECTOR('',#217,10.358495283);
#219=LINE('',#216,#218);
#220=EDGE_CURVE('',#207,#215,#219,.T.);
#221=ORIENTED_EDGE('',*,*,#220,.T.);
#222=CARTESIAN_POINT('',(-118.683311044,-22.150036095,-8.));
#223=DIRECTION('',(-0.,-1.,-0.));
#224=VECTOR('',#223,3.);
#225=LINE('',#222,#224);
#226=EDGE_CURVE('',#215,#91,#225,.T.);
#227=ORIENTED_EDGE('',*,*,#226,.T.);
#228=ORIENTED_EDGE('',*,*,#96,.F.);
#229=CARTESIAN_POINT('',(-131.324815761,25.149963905,-8.));
#230=VERTEX_POINT('',#229);
#231=CARTESIAN_POINT('',(-131.324815761,25.149963905,-8.));
#232=DIRECTION('',(0.,-1.,0.));
#233=VECTOR('',#232,50.3);
#234=LINE('',#231,#233);
#235=EDGE_CURVE('',#230,#83,#234,.T.);
#236=ORIENTED_EDGE('',*,*,#235,.F.);
#237=CARTESIAN_POINT('',(-118.683311044,25.149963905,-8.));
#238=VERTEX_POINT('',#237);
#239=CARTESIAN_POINT('',(-131.324815761,25.149963905,-8.));
#240=DIRECTION('',(1.,0.,-0.));
#241=VECTOR('',#240,12.641504717);
#242=LINE('',#239,#241);
#243=EDGE_CURVE('',#230,#238,#242,.T.);
#244=ORIENTED_EDGE('',*,*,#243,.T.);
#245=CARTESIAN_POINT('',(-118.683311044,22.149963905,-8.));
#246=VERTEX_POINT('',#245);
#247=CARTESIAN_POINT('',(-118.683311044,25.149963905,-8.));
#248=DIRECTION('',(0.,-1.,0.));
#249=VECTOR('',#248,3.);
#250=LINE('',#247,#249);
#251=EDGE_CURVE('',#238,#246,#250,.T.);
#252=ORIENTED_EDGE('',*,*,#251,.T.);
#253=CARTESIAN_POINT('',(-108.324815761,22.149963905,-8.));
#254=VERTEX_POINT('',#253);
#255=CARTESIAN_POINT('',(-118.683311044,22.149963905,-8.));
#256=DIRECTION('',(1.,0.,-0.));
#257=VECTOR('',#256,10.358495283);
#258=LINE('',#255,#257);
#259=EDGE_CURVE('',#246,#254,#258,.T.);
#260=ORIENTED_EDGE('',*,*,#259,.T.);
#261=CARTESIAN_POINT('',(-108.324815761,11.999963905,-8.));
#262=VERTEX_POINT('',#261);
#263=CARTESIAN_POINT('',(-108.324815761,11.999963905,-8.));
#264=DIRECTION('',(0.,1.,0.));
#265=VECTOR('',#264,10.15);
#266=LINE('',#263,#265);
#267=EDGE_CURVE('',#262,#254,#266,.T.);
#268=ORIENTED_EDGE('',*,*,#267,.F.);
#269=CARTESIAN_POINT('',(-108.324815761,11.999963905,-8.));
#270=DIRECTION('',(-1.,0.,0.));
#271=VECTOR('',#270,10.358495283);
#272=LINE('',#269,#271);
#273=EDGE_CURVE('',#262,#157,#272,.T.);
#274=ORIENTED_EDGE('',*,*,#273,.T.);
#275=EDGE_LOOP('',(#165,#173,#181,#189,#197,#205,#213,#221,#227,#228,#236,#244,#252,#260,#268,#274));
#276=FACE_BOUND('',#275,.T.);
#277=ADVANCED_FACE('',(#122,#133,#144,#155,#276),#111,.F.);
#278=CARTESIAN_POINT('',(-108.324815761,0.149963905,-6.313096112));
#279=DIRECTION('',(1.,0.,0.));
#280=DIRECTION('',(0.,0.,-1.));
#281=AXIS2_PLACEMENT_3D('',#278,#279,#280);
#282=PLANE('',#281);
#283=CARTESIAN_POINT('',(-108.324815761,25.149963905,-24.573592453));
#284=VERTEX_POINT('',#283);
#285=CARTESIAN_POINT('',(-108.324815761,25.149963905,-44.313096112));
#286=VERTEX_POINT('',#285);
#287=CARTESIAN_POINT('',(-108.324815761,25.149963905,-24.573592453));
#288=DIRECTION('',(0.,0.,-1.));
#289=VECTOR('',#288,19.739503659);
#290=LINE('',#287,#289);
#291=EDGE_CURVE('',#284,#286,#290,.T.);
#292=ORIENTED_EDGE('',*,*,#291,.T.);
#293=CARTESIAN_POINT('',(-108.324815761,25.149963905,-44.313096112));
#294=DIRECTION('',(0.,-1.,0.));
#295=VECTOR('',#294,50.3);
#296=LINE('',#293,#295);
#297=EDGE_CURVE('',#286,#35,#296,.T.);
#298=ORIENTED_EDGE('',*,*,#297,.T.);
#299=ORIENTED_EDGE('',*,*,#40,.F.);
#300=CARTESIAN_POINT('',(-108.324815761,-22.150036095,-24.573592453));
#301=VERTEX_POINT('',#300);
#302=CARTESIAN_POINT('',(-108.324815761,-22.150036095,-24.573592453));
#303=DIRECTION('',(-0.,-1.,-0.));
#304=VECTOR('',#303,3.);
#305=LINE('',#302,#304);
#306=EDGE_CURVE('',#301,#33,#305,.T.);
#307=ORIENTED_EDGE('',*,*,#306,.F.);
#308=CARTESIAN_POINT('',(-108.324815761,-22.150036095,-8.));
#309=DIRECTION('',(-0.,-0.,-1.));
#310=VECTOR('',#309,16.573592453);
#311=LINE('',#308,#310);
#312=EDGE_CURVE('',#207,#301,#311,.T.);
#313=ORIENTED_EDGE('',*,*,#312,.F.);
#314=ORIENTED_EDGE('',*,*,#212,.T.);
#315=CARTESIAN_POINT('',(-108.324815761,-11.5,-24.573592453));
#316=VERTEX_POINT('',#315);
#317=CARTESIAN_POINT('',(-108.324815761,-11.5,-24.573592453));
#318=DIRECTION('',(0.,0.,1.));
#319=VECTOR('',#318,16.573592453);
#320=LINE('',#317,#319);
#321=EDGE_CURVE('',#316,#199,#320,.T.);
#322=ORIENTED_EDGE('',*,*,#321,.F.);
#323=CARTESIAN_POINT('',(-108.324815761,-8.5,-24.573592453));
#324=VERTEX_POINT('',#323);
#325=CARTESIAN_POINT('',(-108.324815761,-8.5,-24.573592453));
#326=DIRECTION('',(-0.,-1.,-0.));
#327=VECTOR('',#326,3.);
#328=LINE('',#325,#327);
#329=EDGE_CURVE('',#324,#316,#328,.T.);
#330=ORIENTED_EDGE('',*,*,#329,.F.);
#331=CARTESIAN_POINT('',(-108.324815761,-8.5,-8.));
#332=DIRECTION('',(-0.,-0.,-1.));
#333=VECTOR('',#332,16.573592453);
#334=LINE('',#331,#333);
#335=EDGE_CURVE('',#175,#324,#334,.T.);
#336=ORIENTED_EDGE('',*,*,#335,.F.);
#337=ORIENTED_EDGE('',*,*,#180,.T.);
#338=CARTESIAN_POINT('',(-108.324815761,8.999963905,-24.573592453));
#339=VERTEX_POINT('',#338);
#340=CARTESIAN_POINT('',(-108.324815761,8.999963905,-24.573592453));
#341=DIRECTION('',(-0.,0.,1.));
#342=VECTOR('',#341,16.573592453);
#343=LINE('',#340,#342);
#344=EDGE_CURVE('',#339,#167,#343,.T.);
#345=ORIENTED_EDGE('',*,*,#344,.F.);
#346=CARTESIAN_POINT('',(-108.324815761,11.999963905,-24.573592453));
#347=VERTEX_POINT('',#346);
#348=CARTESIAN_POINT('',(-108.324815761,11.999963905,-24.573592453));
#349=DIRECTION('',(0.,-1.,0.));
#350=VECTOR('',#349,3.);
#351=LINE('',#348,#350);
#352=EDGE_CURVE('',#347,#339,#351,.T.);
#353=ORIENTED_EDGE('',*,*,#352,.F.);
#354=CARTESIAN_POINT('',(-108.324815761,11.999963905,-8.));
#355=DIRECTION('',(0.,-0.,-1.));
#356=VECTOR('',#355,16.573592453);
#357=LINE('',#354,#356);
#358=EDGE_CURVE('',#262,#347,#357,.T.);
#359=ORIENTED_EDGE('',*,*,#358,.F.);
#360=ORIENTED_EDGE('',*,*,#267,.T.);
#361=CARTESIAN_POINT('',(-108.324815761,22.149963905,-24.573592453));
#362=VERTEX_POINT('',#361);
#363=CARTESIAN_POINT('',(-108.324815761,22.149963905,-24.573592453));
#364=DIRECTION('',(-0.,0.,1.));
#365=VECTOR('',#364,16.573592453);
#366=LINE('',#363,#365);
#367=EDGE_CURVE('',#362,#254,#366,.T.);
#368=ORIENTED_EDGE('',*,*,#367,.F.);
#369=CARTESIAN_POINT('',(-108.324815761,25.149963905,-24.573592453));
#370=DIRECTION('',(0.,-1.,0.));
#371=VECTOR('',#370,3.);
#372=LINE('',#369,#371);
#373=EDGE_CURVE('',#284,#362,#372,.T.);
#374=ORIENTED_EDGE('',*,*,#373,.F.);
#375=EDGE_LOOP('',(#292,#298,#299,#307,#313,#314,#322,#330,#336,#337,#345,#353,#359,#360,#368,#374));
#376=FACE_BOUND('',#375,.T.);
#377=ADVANCED_FACE('',(#376),#282,.F.);
#378=CARTESIAN_POINT('',(0.,0.,-44.313096112));
#379=DIRECTION('',(0.,0.,1.));
#380=DIRECTION('',(1.,0.,0.));
#381=AXIS2_PLACEMENT_3D('',#378,#379,#380);
#382=PLANE('',#381);
#383=CARTESIAN_POINT('',(-120.724815761,-0.000036095,-44.313096112));
#384=VERTEX_POINT('',#383);
#385=CARTESIAN_POINT('',(-122.324815761,-0.000036095,-44.313096112));
#386=DIRECTION('',(0.,0.,1.));
#387=DIRECTION('',(1.,0.,-0.));
#388=AXIS2_PLACEMENT_3D('',#385,#386,#387);
#389=CIRCLE('',#388,1.6);
#390=EDGE_CURVE('',#384,#384,#389,.T.);
#391=ORIENTED_EDGE('',*,*,#390,.F.);
#392=EDGE_LOOP('',(#391));
#393=FACE_BOUND('',#392,.T.);
#394=ORIENTED_EDGE('',*,*,#48,.T.);
#395=ORIENTED_EDGE('',*,*,#297,.F.);
#396=CARTESIAN_POINT('',(-133.824815761,25.149963905,-44.313096112));
#397=VERTEX_POINT('',#396);
#398=CARTESIAN_POINT('',(-108.324815761,25.149963905,-44.313096112));
#399=DIRECTION('',(-1.,0.,0.));
#400=VECTOR('',#399,25.5);
#401=LINE('',#398,#400);
#402=EDGE_CURVE('',#286,#397,#401,.T.);
#403=ORIENTED_EDGE('',*,*,#402,.T.);
#404=CARTESIAN_POINT('',(-133.824815761,25.149963905,-44.313096112));
#405=DIRECTION('',(0.,-1.,0.));
#406=VECTOR('',#405,50.3);
#407=LINE('',#404,#406);
#408=EDGE_CURVE('',#397,#43,#407,.T.);
#409=ORIENTED_EDGE('',*,*,#408,.T.);
#410=EDGE_LOOP('',(#394,#395,#403,#409));
#411=FACE_BOUND('',#410,.T.);
#412=CARTESIAN_POINT('',(-120.724815761,14.999963905,-44.313096112));
#413=VERTEX_POINT('',#412);
#414=CARTESIAN_POINT('',(-122.324815761,14.999963905,-44.313096112));
#415=DIRECTION('',(-0.,-0.,-1.));
#416=DIRECTION('',(1.,0.,-0.));
#417=AXIS2_PLACEMENT_3D('',#414,#415,#416);
#418=CIRCLE('',#417,1.6);
#419=EDGE_CURVE('',#413,#413,#418,.T.);
#420=ORIENTED_EDGE('',*,*,#419,.T.);
#421=EDGE_LOOP('',(#420));
#422=FACE_BOUND('',#421,.T.);
#423=CARTESIAN_POINT('',(-120.724815761,-15.000036095,-44.313096112));
#424=VERTEX_POINT('',#423);
#425=CARTESIAN_POINT('',(-122.324815761,-15.000036095,-44.313096112));
#426=DIRECTION('',(-0.,-0.,-1.));
#427=DIRECTION('',(1.,0.,-0.));
#428=AXIS2_PLACEMENT_3D('',#425,#426,#427);
#429=CIRCLE('',#428,1.6);
#430=EDGE_CURVE('',#424,#424,#429,.T.);
#431=ORIENTED_EDGE('',*,*,#430,.T.);
#432=EDGE_LOOP('',(#431));
#433=FACE_BOUND('',#432,.T.);
#434=ADVANCED_FACE('',(#393,#411,#422,#433),#382,.T.);
#435=CARTESIAN_POINT('',(-131.324815761,0.149963905,-5.));
#436=DIRECTION('',(0.,0.,-1.));
#437=DIRECTION('',(-1.,0.,0.));
#438=AXIS2_PLACEMENT_3D('',#435,#436,#437);
#439=PLANE('',#438);
#440=CARTESIAN_POINT('',(-122.924815761,4.999963905,-5.));
#441=VERTEX_POINT('',#440);
#442=CARTESIAN_POINT('',(-121.324815761,4.999963905,-5.));
#443=DIRECTION('',(0.,0.,-1.));
#444=DIRECTION('',(-1.,0.,0.));
#445=AXIS2_PLACEMENT_3D('',#442,#443,#444);
#446=CIRCLE('',#445,1.6);
#447=EDGE_CURVE('',#441,#441,#446,.T.);
#448=ORIENTED_EDGE('',*,*,#447,.T.);
#449=EDGE_LOOP('',(#448));
#450=FACE_BOUND('',#449,.T.);
#451=CARTESIAN_POINT('',(-122.924815761,-15.000036095,-5.));
#452=VERTEX_POINT('',#451);
#453=CARTESIAN_POINT('',(-121.324815761,-15.000036095,-5.));
#454=DIRECTION('',(0.,0.,-1.));
#455=DIRECTION('',(-1.,0.,0.));
#456=AXIS2_PLACEMENT_3D('',#453,#454,#455);
#457=CIRCLE('',#456,1.6);
#458=EDGE_CURVE('',#452,#452,#457,.T.);
#459=ORIENTED_EDGE('',*,*,#458,.T.);
#460=EDGE_LOOP('',(#459));
#461=FACE_BOUND('',#460,.T.);
#462=CARTESIAN_POINT('',(-122.924815761,-5.000036095,-5.));
#463=VERTEX_POINT('',#462);
#464=CARTESIAN_POINT('',(-121.324815761,-5.000036095,-5.));
#465=DIRECTION('',(0.,0.,-1.));
#466=DIRECTION('',(-1.,0.,0.));
#467=AXIS2_PLACEMENT_3D('',#464,#465,#466);
#468=CIRCLE('',#467,1.6);
#469=EDGE_CURVE('',#463,#463,#468,.T.);
#470=ORIENTED_EDGE('',*,*,#469,.T.);
#471=EDGE_LOOP('',(#470));
#472=FACE_BOUND('',#471,.T.);
#473=CARTESIAN_POINT('',(-122.924815761,14.999963905,-5.));
#474=VERTEX_POINT('',#473);
#475=CARTESIAN_POINT('',(-121.324815761,14.999963905,-5.));
#476=DIRECTION('',(0.,0.,-1.));
#477=DIRECTION('',(-1.,0.,0.));
#478=AXIS2_PLACEMENT_3D('',#475,#476,#477);
#479=CIRCLE('',#478,1.6);
#480=EDGE_CURVE('',#474,#474,#479,.T.);
#481=ORIENTED_EDGE('',*,*,#480,.T.);
#482=EDGE_LOOP('',(#481));
#483=FACE_BOUND('',#482,.T.);
#484=CARTESIAN_POINT('',(-105.324815761,25.149963905,-5.));
#485=VERTEX_POINT('',#484);
#486=CARTESIAN_POINT('',(-105.324815761,-25.150036095,-5.));
#487=DIRECTION('',(0.,1.,0.));
#488=VECTOR('',#487,50.3);
#489=LINE('',#486,#488);
#490=EDGE_CURVE('',#67,#485,#489,.T.);
#491=ORIENTED_EDGE('',*,*,#490,.T.);
#492=CARTESIAN_POINT('',(-131.324815761,25.149963905,-5.));
#493=VERTEX_POINT('',#492);
#494=CARTESIAN_POINT('',(-131.324815761,25.149963905,-5.));
#495=DIRECTION('',(1.,0.,-0.));
#496=VECTOR('',#495,26.);
#497=LINE('',#494,#496);
#498=EDGE_CURVE('',#493,#485,#497,.T.);
#499=ORIENTED_EDGE('',*,*,#498,.F.);
#500=CARTESIAN_POINT('',(-131.324815761,-25.150036095,-5.));
#501=DIRECTION('',(0.,1.,0.));
#502=VECTOR('',#501,50.3);
#503=LINE('',#500,#502);
#504=EDGE_CURVE('',#75,#493,#503,.T.);
#505=ORIENTED_EDGE('',*,*,#504,.F.);
#506=ORIENTED_EDGE('',*,*,#80,.T.);
#507=EDGE_LOOP('',(#491,#499,#505,#506));
#508=FACE_BOUND('',#507,.T.);
#509=ADVANCED_FACE('',(#450,#461,#472,#483,#508),#439,.F.);
#510=CARTESIAN_POINT('',(-131.324815761,25.149963905,-5.656548056));
#511=DIRECTION('',(0.,-1.,0.));
#512=DIRECTION('',(0.,0.,-1.));
#513=AXIS2_PLACEMENT_3D('',#510,#511,#512);
#514=PLANE('',#513);
#515=ORIENTED_EDGE('',*,*,#402,.F.);
#516=ORIENTED_EDGE('',*,*,#291,.F.);
#517=CARTESIAN_POINT('',(-108.324815761,25.149963905,-24.573592453));
#518=DIRECTION('',(-0.52999894,0.,0.847998304));
#519=VECTOR('',#518,19.544369811);
#520=LINE('',#517,#519);
#521=EDGE_CURVE('',#284,#238,#520,.T.);
#522=ORIENTED_EDGE('',*,*,#521,.T.);
#523=ORIENTED_EDGE('',*,*,#243,.F.);
#524=CARTESIAN_POINT('',(-131.324815761,25.149963905,-5.));
#525=DIRECTION('',(0.,0.,-1.));
#526=VECTOR('',#525,3.);
#527=LINE('',#524,#526);
#528=EDGE_CURVE('',#493,#230,#527,.T.);
#529=ORIENTED_EDGE('',*,*,#528,.F.);
#530=ORIENTED_EDGE('',*,*,#498,.T.);
#531=CARTESIAN_POINT('',(-105.324815761,25.149963905,-47.313096112));
#532=VERTEX_POINT('',#531);
#533=CARTESIAN_POINT('',(-105.324815761,25.149963905,-5.));
#534=DIRECTION('',(0.,0.,-1.));
#535=VECTOR('',#534,42.313096112);
#536=LINE('',#533,#535);
#537=EDGE_CURVE('',#485,#532,#536,.T.);
#538=ORIENTED_EDGE('',*,*,#537,.T.);
#539=CARTESIAN_POINT('',(-133.824815761,25.149963905,-47.313096112));
#540=VERTEX_POINT('',#539);
#541=CARTESIAN_POINT('',(-105.324815761,25.149963905,-47.313096112));
#542=DIRECTION('',(-1.,0.,0.));
#543=VECTOR('',#542,28.5);
#544=LINE('',#541,#543);
#545=EDGE_CURVE('',#532,#540,#544,.T.);
#546=ORIENTED_EDGE('',*,*,#545,.T.);
#547=CARTESIAN_POINT('',(-133.824815761,25.149963905,-44.313096112));
#548=DIRECTION('',(0.,0.,-1.));
#549=VECTOR('',#548,3.);
#550=LINE('',#547,#549);
#551=EDGE_CURVE('',#397,#540,#550,.T.);
#552=ORIENTED_EDGE('',*,*,#551,.F.);
#553=EDGE_LOOP('',(#515,#516,#522,#523,#529,#530,#538,#546,#552));
#554=FACE_BOUND('',#553,.T.);
#555=ADVANCED_FACE('',(#554),#514,.F.);
#556=CARTESIAN_POINT('',(-131.324815761,0.,0.));
#557=DIRECTION('',(-1.,0.,0.));
#558=DIRECTION('',(0.,-1.,0.));
#559=AXIS2_PLACEMENT_3D('',#556,#557,#558);
#560=PLANE('',#559);
#561=ORIENTED_EDGE('',*,*,#235,.T.);
#562=ORIENTED_EDGE('',*,*,#88,.T.);
#563=ORIENTED_EDGE('',*,*,#504,.T.);
#564=ORIENTED_EDGE('',*,*,#528,.T.);
#565=EDGE_LOOP('',(#561,#562,#563,#564));
#566=FACE_BOUND('',#565,.T.);
#567=ADVANCED_FACE('',(#566),#560,.T.);
#568=CARTESIAN_POINT('',(-105.324815761,0.,0.));
#569=DIRECTION('',(-1.,0.,0.));
#570=DIRECTION('',(0.,-1.,0.));
#571=AXIS2_PLACEMENT_3D('',#568,#569,#570);
#572=PLANE('',#571);
#573=ORIENTED_EDGE('',*,*,#490,.F.);
#574=ORIENTED_EDGE('',*,*,#72,.F.);
#575=CARTESIAN_POINT('',(-105.324815761,-25.150036095,-47.313096112));
#576=DIRECTION('',(0.,1.,0.));
#577=VECTOR('',#576,50.3);
#578=LINE('',#575,#577);
#579=EDGE_CURVE('',#59,#532,#578,.T.);
#580=ORIENTED_EDGE('',*,*,#579,.T.);
#581=ORIENTED_EDGE('',*,*,#537,.F.);
#582=EDGE_LOOP('',(#573,#574,#580,#581));
#583=FACE_BOUND('',#582,.T.);
#584=ADVANCED_FACE('',(#583),#572,.F.);
#585=CARTESIAN_POINT('',(-133.824815761,-0.000036095,-45.313096112));
#586=DIRECTION('',(1.,0.,0.));
#587=DIRECTION('',(0.,0.,-1.));
#588=AXIS2_PLACEMENT_3D('',#585,#586,#587);
#589=PLANE('',#588);
#590=CARTESIAN_POINT('',(-133.824815761,25.149963905,-47.313096112));
#591=DIRECTION('',(0.,-1.,0.));
#592=VECTOR('',#591,50.3);
#593=LINE('',#590,#592);
#594=EDGE_CURVE('',#540,#51,#593,.T.);
#595=ORIENTED_EDGE('',*,*,#594,.T.);
#596=ORIENTED_EDGE('',*,*,#56,.F.);
#597=ORIENTED_EDGE('',*,*,#408,.F.);
#598=ORIENTED_EDGE('',*,*,#551,.T.);
#599=EDGE_LOOP('',(#595,#596,#597,#598));
#600=FACE_BOUND('',#599,.T.);
#601=ADVANCED_FACE('',(#600),#589,.F.);
#602=CARTESIAN_POINT('',(0.,0.,-47.313096112));
#603=DIRECTION('',(0.,0.,1.));
#604=DIRECTION('',(1.,0.,0.));
#605=AXIS2_PLACEMENT_3D('',#602,#603,#604);
#606=PLANE('',#605);
#607=CARTESIAN_POINT('',(-120.724815761,-0.000036095,-47.313096112));
#608=VERTEX_POINT('',#607);
#609=CARTESIAN_POINT('',(-122.324815761,-0.000036095,-47.313096112));
#610=DIRECTION('',(0.,0.,1.));
#611=DIRECTION('',(1.,0.,-0.));
#612=AXIS2_PLACEMENT_3D('',#609,#610,#611);
#613=CIRCLE('',#612,1.6);
#614=EDGE_CURVE('',#608,#608,#613,.T.);
#615=ORIENTED_EDGE('',*,*,#614,.T.);
#616=EDGE_LOOP('',(#615));
#617=FACE_BOUND('',#616,.T.);
#618=CARTESIAN_POINT('',(-120.724815761,-15.000036095,-47.313096112));
#619=VERTEX_POINT('',#618);
#620=CARTESIAN_POINT('',(-122.324815761,-15.000036095,-47.313096112));
#621=DIRECTION('',(-0.,-0.,-1.));
#622=DIRECTION('',(1.,0.,-0.));
#623=AXIS2_PLACEMENT_3D('',#620,#621,#622);
#624=CIRCLE('',#623,1.6);
#625=EDGE_CURVE('',#619,#619,#624,.T.);
#626=ORIENTED_EDGE('',*,*,#625,.F.);
#627=EDGE_LOOP('',(#626));
#628=FACE_BOUND('',#627,.T.);
#629=CARTESIAN_POINT('',(-120.724815761,14.999963905,-47.313096112));
#630=VERTEX_POINT('',#629);
#631=CARTESIAN_POINT('',(-122.324815761,14.999963905,-47.313096112));
#632=DIRECTION('',(-0.,-0.,-1.));
#633=DIRECTION('',(1.,0.,-0.));
#634=AXIS2_PLACEMENT_3D('',#631,#632,#633);
#635=CIRCLE('',#634,1.6);
#636=EDGE_CURVE('',#630,#630,#635,.T.);
#637=ORIENTED_EDGE('',*,*,#636,.F.);
#638=EDGE_LOOP('',(#637));
#639=FACE_BOUND('',#638,.T.);
#640=ORIENTED_EDGE('',*,*,#64,.F.);
#641=ORIENTED_EDGE('',*,*,#594,.F.);
#642=ORIENTED_EDGE('',*,*,#545,.F.);
#643=ORIENTED_EDGE('',*,*,#579,.F.);
#644=EDGE_LOOP('',(#640,#641,#642,#643));
#645=FACE_BOUND('',#644,.T.);
#646=ADVANCED_FACE('',(#617,#628,#639,#645),#606,.F.);
#647=CARTESIAN_POINT('',(-121.324815761,14.999963905,3.9));
#648=DIRECTION('',(0.,0.,-1.));
#649=DIRECTION('',(-1.,0.,0.));
#650=AXIS2_PLACEMENT_3D('',#647,#648,#649);
#651=CYLINDRICAL_SURFACE('',#650,1.6);
#652=CARTESIAN_POINT('',(-122.924815761,14.999963905,-8.));
#653=DIRECTION('',(-0.,-0.,1.));
#654=VECTOR('',#653,3.);
#655=LINE('',#652,#654);
#656=EDGE_CURVE('',#146,#474,#655,.T.);
#657=ORIENTED_EDGE('',*,*,#656,.F.);
#658=ORIENTED_EDGE('',*,*,#152,.T.);
#659=ORIENTED_EDGE('',*,*,#656,.T.);
#660=ORIENTED_EDGE('',*,*,#480,.F.);
#661=EDGE_LOOP('',(#657,#658,#659,#660));
#662=FACE_BOUND('',#661,.T.);
#663=ADVANCED_FACE('',(#662),#651,.F.);
#664=CARTESIAN_POINT('',(-121.324815761,-5.000036095,3.9));
#665=DIRECTION('',(0.,0.,-1.));
#666=DIRECTION('',(-1.,0.,0.));
#667=AXIS2_PLACEMENT_3D('',#664,#665,#666);
#668=CYLINDRICAL_SURFACE('',#667,1.6);
#669=CARTESIAN_POINT('',(-122.924815761,-5.000036095,-8.));
#670=DIRECTION('',(-0.,-0.,1.));
#671=VECTOR('',#670,3.);
#672=LINE('',#669,#671);
#673=EDGE_CURVE('',#135,#463,#672,.T.);
#674=ORIENTED_EDGE('',*,*,#673,.F.);
#675=ORIENTED_EDGE('',*,*,#141,.T.);
#676=ORIENTED_EDGE('',*,*,#673,.T.);
#677=ORIENTED_EDGE('',*,*,#469,.F.);
#678=EDGE_LOOP('',(#674,#675,#676,#677));
#679=FACE_BOUND('',#678,.T.);
#680=ADVANCED_FACE('',(#679),#668,.F.);
#681=CARTESIAN_POINT('',(-121.324815761,-15.000036095,3.9));
#682=DIRECTION('',(0.,0.,-1.));
#683=DIRECTION('',(-1.,0.,0.));
#684=AXIS2_PLACEMENT_3D('',#681,#682,#683);
#685=CYLINDRICAL_SURFACE('',#684,1.6);
#686=CARTESIAN_POINT('',(-122.924815761,-15.000036095,-8.));
#687=DIRECTION('',(-0.,-0.,1.));
#688=VECTOR('',#687,3.);
#689=LINE('',#686,#688);
#690=EDGE_CURVE('',#124,#452,#689,.T.);
#691=ORIENTED_EDGE('',*,*,#690,.F.);
#692=ORIENTED_EDGE('',*,*,#130,.T.);
#693=ORIENTED_EDGE('',*,*,#690,.T.);
#694=ORIENTED_EDGE('',*,*,#458,.F.);
#695=EDGE_LOOP('',(#691,#692,#693,#694));
#696=FACE_BOUND('',#695,.T.);
#697=ADVANCED_FACE('',(#696),#685,.F.);
#698=CARTESIAN_POINT('',(-121.324815761,4.999963905,3.9));
#699=DIRECTION('',(0.,0.,-1.));
#700=DIRECTION('',(-1.,0.,0.));
#701=AXIS2_PLACEMENT_3D('',#698,#699,#700);
#702=CYLINDRICAL_SURFACE('',#701,1.6);
#703=CARTESIAN_POINT('',(-122.924815761,4.999963905,-8.));
#704=DIRECTION('',(-0.,-0.,1.));
#705=VECTOR('',#704,3.);
#706=LINE('',#703,#705);
#707=EDGE_CURVE('',#113,#441,#706,.T.);
#708=ORIENTED_EDGE('',*,*,#707,.F.);
#709=ORIENTED_EDGE('',*,*,#119,.T.);
#710=ORIENTED_EDGE('',*,*,#707,.T.);
#711=ORIENTED_EDGE('',*,*,#447,.F.);
#712=EDGE_LOOP('',(#708,#709,#710,#711));
#713=FACE_BOUND('',#712,.T.);
#714=ADVANCED_FACE('',(#713),#702,.F.);
#715=CARTESIAN_POINT('',(-122.324815761,14.999963905,-54.6));
#716=DIRECTION('',(0.,0.,1.));
#717=DIRECTION('',(1.,0.,-0.));
#718=AXIS2_PLACEMENT_3D('',#715,#716,#717);
#719=CYLINDRICAL_SURFACE('',#718,1.6);
#720=CARTESIAN_POINT('',(-120.724815761,14.999963905,-44.313096112));
#721=DIRECTION('',(-0.,-0.,-1.));
#722=VECTOR('',#721,3.);
#723=LINE('',#720,#722);
#724=EDGE_CURVE('',#413,#630,#723,.T.);
#725=ORIENTED_EDGE('',*,*,#724,.F.);
#726=ORIENTED_EDGE('',*,*,#419,.F.);
#727=ORIENTED_EDGE('',*,*,#724,.T.);
#728=ORIENTED_EDGE('',*,*,#636,.T.);
#729=EDGE_LOOP('',(#725,#726,#727,#728));
#730=FACE_BOUND('',#729,.T.);
#731=ADVANCED_FACE('',(#730),#719,.F.);
#732=CARTESIAN_POINT('',(-122.324815761,-15.000036095,-57.));
#733=DIRECTION('',(0.,0.,1.));
#734=DIRECTION('',(1.,0.,-0.));
#735=AXIS2_PLACEMENT_3D('',#732,#733,#734);
#736=CYLINDRICAL_SURFACE('',#735,1.6);
#737=CARTESIAN_POINT('',(-120.724815761,-15.000036095,-44.313096112));
#738=DIRECTION('',(-0.,-0.,-1.));
#739=VECTOR('',#738,3.);
#740=LINE('',#737,#739);
#741=EDGE_CURVE('',#424,#619,#740,.T.);
#742=ORIENTED_EDGE('',*,*,#741,.F.);
#743=ORIENTED_EDGE('',*,*,#430,.F.);
#744=ORIENTED_EDGE('',*,*,#741,.T.);
#745=ORIENTED_EDGE('',*,*,#625,.T.);
#746=EDGE_LOOP('',(#742,#743,#744,#745));
#747=FACE_BOUND('',#746,.T.);
#748=ADVANCED_FACE('',(#747),#736,.F.);
#749=CARTESIAN_POINT('',(0.,-8.5,0.));
#750=DIRECTION('',(0.,-1.,0.));
#751=DIRECTION('',(0.,-0.,-1.));
#752=AXIS2_PLACEMENT_3D('',#749,#750,#751);
#753=PLANE('',#752);
#754=CARTESIAN_POINT('',(-108.324815761,-8.5,-24.573592453));
#755=DIRECTION('',(-0.52999894,0.,0.847998304));
#756=VECTOR('',#755,19.544369811);
#757=LINE('',#754,#756);
#758=EDGE_CURVE('',#324,#183,#757,.T.);
#759=ORIENTED_EDGE('',*,*,#758,.T.);
#760=ORIENTED_EDGE('',*,*,#188,.F.);
#761=ORIENTED_EDGE('',*,*,#335,.T.);
#762=EDGE_LOOP('',(#759,#760,#761));
#763=FACE_BOUND('',#762,.T.);
#764=ADVANCED_FACE('',(#763),#753,.F.);
#765=CARTESIAN_POINT('',(-88.940807942,1.,-55.588004964));
#766=DIRECTION('',(0.847998304,0.,0.52999894));
#767=DIRECTION('',(0.52999894,0.,-0.847998304));
#768=AXIS2_PLACEMENT_3D('',#765,#766,#767);
#769=PLANE('',#768);
#770=CARTESIAN_POINT('',(-108.324815761,-11.5,-24.573592453));
#771=DIRECTION('',(-0.52999894,-0.,0.847998304));
#772=VECTOR('',#771,19.544369811);
#773=LINE('',#770,#772);
#774=EDGE_CURVE('',#316,#191,#773,.T.);
#775=ORIENTED_EDGE('',*,*,#774,.T.);
#776=ORIENTED_EDGE('',*,*,#196,.F.);
#777=ORIENTED_EDGE('',*,*,#758,.F.);
#778=ORIENTED_EDGE('',*,*,#329,.T.);
#779=EDGE_LOOP('',(#775,#776,#777,#778));
#780=FACE_BOUND('',#779,.T.);
#781=ADVANCED_FACE('',(#780),#769,.F.);
#782=CARTESIAN_POINT('',(0.,-11.5,0.));
#783=DIRECTION('',(0.,-1.,0.));
#784=DIRECTION('',(0.,0.,-1.));
#785=AXIS2_PLACEMENT_3D('',#782,#783,#784);
#786=PLANE('',#785);
#787=ORIENTED_EDGE('',*,*,#204,.F.);
#788=ORIENTED_EDGE('',*,*,#774,.F.);
#789=ORIENTED_EDGE('',*,*,#321,.T.);
#790=EDGE_LOOP('',(#787,#788,#789));
#791=FACE_BOUND('',#790,.T.);
#792=ADVANCED_FACE('',(#791),#786,.T.);
#793=CARTESIAN_POINT('',(0.,-22.150036095,0.));
#794=DIRECTION('',(0.,-1.,0.));
#795=DIRECTION('',(0.,-0.,-1.));
#796=AXIS2_PLACEMENT_3D('',#793,#794,#795);
#797=PLANE('',#796);
#798=CARTESIAN_POINT('',(-108.324815761,-22.150036095,-24.573592453));
#799=DIRECTION('',(-0.52999894,0.,0.847998304));
#800=VECTOR('',#799,19.544369811);
#801=LINE('',#798,#800);
#802=EDGE_CURVE('',#301,#215,#801,.T.);
#803=ORIENTED_EDGE('',*,*,#802,.T.);
#804=ORIENTED_EDGE('',*,*,#220,.F.);
#805=ORIENTED_EDGE('',*,*,#312,.T.);
#806=EDGE_LOOP('',(#803,#804,#805));
#807=FACE_BOUND('',#806,.T.);
#808=ADVANCED_FACE('',(#807),#797,.F.);
#809=CARTESIAN_POINT('',(-88.940807942,-12.650036095,-55.588004964));
#810=DIRECTION('',(0.847998304,0.,0.52999894));
#811=DIRECTION('',(0.52999894,0.,-0.847998304));
#812=AXIS2_PLACEMENT_3D('',#809,#810,#811);
#813=PLANE('',#812);
#814=ORIENTED_EDGE('',*,*,#102,.T.);
#815=ORIENTED_EDGE('',*,*,#226,.F.);
#816=ORIENTED_EDGE('',*,*,#802,.F.);
#817=ORIENTED_EDGE('',*,*,#306,.T.);
#818=EDGE_LOOP('',(#814,#815,#816,#817));
#819=FACE_BOUND('',#818,.T.);
#820=ADVANCED_FACE('',(#819),#813,.F.);
#821=CARTESIAN_POINT('',(-0.,22.149963905,-0.));
#822=DIRECTION('',(0.,1.,-0.));
#823=DIRECTION('',(0.,0.,1.));
#824=AXIS2_PLACEMENT_3D('',#821,#822,#823);
#825=PLANE('',#824);
#826=ORIENTED_EDGE('',*,*,#367,.T.);
#827=ORIENTED_EDGE('',*,*,#259,.F.);
#828=CARTESIAN_POINT('',(-108.324815761,22.149963905,-24.573592453));
#829=DIRECTION('',(-0.52999894,0.,0.847998304));
#830=VECTOR('',#829,19.544369811);
#831=LINE('',#828,#830);
#832=EDGE_CURVE('',#362,#246,#831,.T.);
#833=ORIENTED_EDGE('',*,*,#832,.F.);
#834=EDGE_LOOP('',(#826,#827,#833));
#835=FACE_BOUND('',#834,.T.);
#836=ADVANCED_FACE('',(#835),#825,.F.);
#837=CARTESIAN_POINT('',(-88.940807942,12.15,-55.588004964));
#838=DIRECTION('',(-0.847998304,0.,-0.52999894));
#839=DIRECTION('',(-0.52999894,0.,0.847998304));
#840=AXIS2_PLACEMENT_3D('',#837,#838,#839);
#841=PLANE('',#840);
#842=ORIENTED_EDGE('',*,*,#251,.F.);
#843=ORIENTED_EDGE('',*,*,#521,.F.);
#844=ORIENTED_EDGE('',*,*,#373,.T.);
#845=ORIENTED_EDGE('',*,*,#832,.T.);
#846=EDGE_LOOP('',(#842,#843,#844,#845));
#847=FACE_BOUND('',#846,.T.);
#848=ADVANCED_FACE('',(#847),#841,.T.);
#849=CARTESIAN_POINT('',(0.,8.999963905,-0.));
#850=DIRECTION('',(0.,1.,-0.));
#851=DIRECTION('',(0.,0.,1.));
#852=AXIS2_PLACEMENT_3D('',#849,#850,#851);
#853=PLANE('',#852);
#854=ORIENTED_EDGE('',*,*,#344,.T.);
#855=ORIENTED_EDGE('',*,*,#172,.F.);
#856=CARTESIAN_POINT('',(-108.324815761,8.999963905,-24.573592453));
#857=DIRECTION('',(-0.52999894,0.,0.847998304));
#858=VECTOR('',#857,19.544369811);
#859=LINE('',#856,#858);
#860=EDGE_CURVE('',#339,#159,#859,.T.);
#861=ORIENTED_EDGE('',*,*,#860,.F.);
#862=EDGE_LOOP('',(#854,#855,#861));
#863=FACE_BOUND('',#862,.T.);
#864=ADVANCED_FACE('',(#863),#853,.F.);
#865=CARTESIAN_POINT('',(0.,11.999963905,-0.));
#866=DIRECTION('',(0.,1.,-0.));
#867=DIRECTION('',(0.,0.,1.));
#868=AXIS2_PLACEMENT_3D('',#865,#866,#867);
#869=PLANE('',#868);
#870=CARTESIAN_POINT('',(-108.324815761,11.999963905,-24.573592453));
#871=DIRECTION('',(-0.52999894,0.,0.847998304));
#872=VECTOR('',#871,19.544369811);
#873=LINE('',#870,#872);
#874=EDGE_CURVE('',#347,#157,#873,.T.);
#875=ORIENTED_EDGE('',*,*,#874,.T.);
#876=ORIENTED_EDGE('',*,*,#273,.F.);
#877=ORIENTED_EDGE('',*,*,#358,.T.);
#878=EDGE_LOOP('',(#875,#876,#877));
#879=FACE_BOUND('',#878,.T.);
#880=ADVANCED_FACE('',(#879),#869,.T.);
#881=CARTESIAN_POINT('',(-88.940807942,-1.,-55.588004964));
#882=DIRECTION('',(-0.847998304,0.,-0.52999894));
#883=DIRECTION('',(-0.52999894,0.,0.847998304));
#884=AXIS2_PLACEMENT_3D('',#881,#882,#883);
#885=PLANE('',#884);
#886=ORIENTED_EDGE('',*,*,#164,.F.);
#887=ORIENTED_EDGE('',*,*,#874,.F.);
#888=ORIENTED_EDGE('',*,*,#352,.T.);
#889=ORIENTED_EDGE('',*,*,#860,.T.);
#890=EDGE_LOOP('',(#886,#887,#888,#889));
#891=FACE_BOUND('',#890,.T.);
#892=ADVANCED_FACE('',(#891),#885,.T.);
#893=CARTESIAN_POINT('',(-122.324815761,-0.000036095,-50.213096112));
#894=DIRECTION('',(0.,0.,1.));
#895=DIRECTION('',(1.,0.,-0.));
#896=AXIS2_PLACEMENT_3D('',#893,#894,#895);
#897=CYLINDRICAL_SURFACE('',#896,1.6);
#898=CARTESIAN_POINT('',(-120.724815761,-0.000036095,-44.313096112));
#899=DIRECTION('',(-0.,-0.,-1.));
#900=VECTOR('',#899,3.);
#901=LINE('',#898,#900);
#902=EDGE_CURVE('',#384,#608,#901,.T.);
#903=ORIENTED_EDGE('',*,*,#902,.F.);
#904=ORIENTED_EDGE('',*,*,#390,.T.);
#905=ORIENTED_EDGE('',*,*,#902,.T.);
#906=ORIENTED_EDGE('',*,*,#614,.F.);
#907=EDGE_LOOP('',(#903,#904,#905,#906));
#908=FACE_BOUND('',#907,.T.);
#909=ADVANCED_FACE('',(#908),#897,.F.);
#910=CLOSED_SHELL('',(#106,#277,#377,#434,#509,#555,#567,#584,#601,#646,#663,#680,#697,#714,#731,#748,#764,#781,#792,#808,#820,#836,#848,#864,#880,#892,
#909));
#911=MANIFOLD_SOLID_BREP('\X2\5B9E4F53\X0\  107',#910);
#912=COLOUR_RGB('',0.627451003,0.627451003,0.643137276);
#913=FILL_AREA_STYLE_COLOUR('',#912);
#914=FILL_AREA_STYLE('',(#913));
#915=SURFACE_STYLE_FILL_AREA(#914);
#916=SURFACE_SIDE_STYLE('',(#915));
#917=SURFACE_STYLE_USAGE(.BOTH.,#916);
#918=PRESENTATION_STYLE_ASSIGNMENT((#917));
#26=STYLED_ITEM('',(#918),#911);
#16=SHAPE_REPRESENTATION('root',(#15),#10);
#17=ADVANCED_BREP_SHAPE_REPRESENTATION('root',(#911),#10);
#926=SHAPE_REPRESENTATION_RELATIONSHIP('','',#16,#17);
#927=APPLICATION_CONTEXT('data for automotive mechanical design processes');
#928=APPLICATION_PROTOCOL_DEFINITION('international standard','automotive_design',1994,#927);
#929=PRODUCT_CONTEXT('',#927,'mechanical');
#930=PRODUCT_DEFINITION_CONTEXT('part definition',#927,'design');
#24=PRODUCT('root','root','',(#929));
#931=PRODUCT_RELATED_PRODUCT_CATEGORY('part','',(#24));
#932=PRODUCT_DEFINITION_FORMATION_WITH_SPECIFIED_SOURCE('','',#24,.NOT_KNOWN.);
#25=PRODUCT_DEFINITION('design','',#932,#930);
#23=PRODUCT_DEFINITION_SHAPE('','',#25);
#933=SHAPE_DEFINITION_REPRESENTATION(#23,#16);
#11=DRAUGHTING_MODEL('',(),#10);
#1=MECHANICAL_DESIGN_GEOMETRIC_PRESENTATION_REPRESENTATION('',(#26),#10);
ENDSEC;
END-ISO-10303-21;
